<?xml version="1.0" encoding="UTF-8" standalone="no"?>
<!-- Created with Inkscape (http://www.inkscape.org/) -->
<svg width="39.6875mm" height="39.6875mm" viewBox="0 0 39.6875 39.6875" version="1.1" id="svg5" inkscape:version="1.1.1 (3bf5ae0d25, 2021-09-20)" sodipodi:docname="Grizzco_background_gray.svg" xmlns:inkscape="http://www.inkscape.org/namespaces/inkscape" xmlns:sodipodi="http://sodipodi.sourceforge.net/DTD/sodipodi-0.dtd" xmlns="http://www.w3.org/2000/svg" xmlns:svg="http://www.w3.org/2000/svg">
  <sodipodi:namedview id="namedview7" pagecolor="#ffffff" bordercolor="#666666" borderopacity="1.0" inkscape:pageshadow="2" inkscape:pageopacity="0.0" inkscape:pagecheckerboard="0" inkscape:document-units="mm" showgrid="false" inkscape:zoom="2.8284271" inkscape:cx="81.670833" inkscape:cy="83.615377" inkscape:window-width="1920" inkscape:window-height="1001" inkscape:window-x="-9" inkscape:window-y="-9" inkscape:window-maximized="1" inkscape:current-layer="layer3" inkscape:snap-bbox="true" inkscape:bbox-nodes="true" inkscape:bbox-paths="true" inkscape:snap-bbox-edge-midpoints="true" inkscape:snap-bbox-midpoints="true" inkscape:object-paths="true" inkscape:snap-intersection-paths="true" inkscape:snap-smooth-nodes="true" inkscape:snap-midpoints="true" inkscape:snap-object-midpoints="true" inkscape:snap-center="true" inkscape:snap-page="true" inkscape:snap-text-baseline="true" inkscape:snap-global="true" fit-margin-top="0" fit-margin-left="0" fit-margin-right="0" fit-margin-bottom="0" showguides="true" inkscape:guide-bbox="true" inkscape:snap-others="true" inkscape:snap-nodes="true">
    <sodipodi:guide position="9.921875,29.765625" orientation="1,0" id="guide12981"/>
    <sodipodi:guide position="9.921875,29.765625" orientation="0,-1" id="guide12983"/>
    <sodipodi:guide position="19.84375,19.84375" orientation="0,-1" id="guide12985"/>
    <sodipodi:guide position="9.921875,9.921875" orientation="0,-1" id="guide12987"/>
    <sodipodi:guide position="0,0" orientation="1,0" id="guide12989"/>
    <sodipodi:guide position="9.921875,0" orientation="0,-1" id="guide12991"/>
    <sodipodi:guide position="19.84375,0" orientation="0,-1" id="guide12993"/>
    <sodipodi:guide position="39.6875,39.6875" orientation="0,-1" id="guide12995"/>
    <sodipodi:guide position="19.84375,19.84375" orientation="1,0" id="guide12997"/>
    <sodipodi:guide position="29.765625,9.921875" orientation="1,0" id="guide12999"/>
    <sodipodi:guide position="39.6875,39.6875" orientation="1,0" id="guide4299"/>
  </sodipodi:namedview>
  <defs id="defs2"/>
  <g inkscape:label="Capa 1" inkscape:groupmode="layer" id="layer1" style="display:inline;opacity:1">
    <rect style="fill:#c9c9c9;fill-opacity:1;stroke:none;stroke-width:2" id="rect12625" width="39.6875" height="39.6875" x="0" y="0"/>
  </g>
  <g inkscape:groupmode="layer" id="layer3" inkscape:label="Capa 2">
    <path id="path836" style="fill:#bebebe;fill-opacity:1;stroke-width:0.0551293" d="m 6.0995079,6.2038655 c -0.0687,0.02008 -0.05073,0.107069 -0.05919,0.161925 -0.01797,0.13825 -0.05813,0.27206 -0.09513,0.405976 -0.281783,-0.135713 -0.572657,-0.295947 -0.894922,-0.288971 -0.176934,-7.72e-4 -0.343722,0.07927 -0.474573,0.194479 -0.108549,0.08561 -0.101467,0.23623 -0.102524,0.361056 -0.0078,0.217627 0.02959,0.436733 0.120598,0.635335 0.164462,0.378706 0.393821,0.724859 0.625506,1.065177 0.241408,0.352917 0.510085,0.685751 0.787747,1.010447 0.04439,0.05391 0.08984,0.106964 0.13455,0.160446 0.0069,-0.135079 0.03699,-0.270263 0.02431,-0.405659 -0.03171,-0.177674 -0.1726,-0.305142 -0.278084,-0.441912 -0.343933,-0.419928 -0.648019,-0.874418 -0.892069,-1.359676 -0.111086,-0.227139 -0.214562,-0.472458 -0.201033,-0.730355 8.35e-4,-0.07822 0.07187,-0.132331 0.145331,-0.13751 0.188878,-0.03594 0.373845,0.03805 0.549616,0.09724 0.07293,0.02854 0.143535,0.05391 0.210651,0.09724 -0.125883,0.113834 -0.287491,0.184438 -0.403016,0.309581 -0.03488,0.04651 0.02325,0.08139 0.06447,0.08667 0.314866,0.0761 0.637237,0.116053 0.9576,0.161185 0.143429,0.0148 0.287597,0.04228 0.432083,0.03488 0.0687,-0.0079 0.104638,-0.0835 0.07927,-0.144803 -0.05919,-0.18687 -0.162348,-0.355982 -0.248807,-0.531014 -0.122395,-0.227245 -0.233903,-0.462206 -0.381137,-0.674759 -0.02537,-0.03065 -0.05602,-0.07504 -0.102525,-0.06765 z m 3.661362,0.0613 c -0.591577,0.01023 -1.17861,0.168373 -1.696559,0.453856 -0.18687,0.103582 -0.378284,0.206423 -0.53873,0.349323 -0.03805,0.02748 -0.06025,0.100411 -0.0032,0.117745 0.135079,-9.51e-4 0.262019,-0.06025 0.392553,-0.08878 0.248384,-0.05813 0.507549,-0.04333 0.748852,0.01374 0.154315,0.03699 0.315923,0.09724 0.454701,0.17482 0.203887,0.114046 0.399106,0.273223 0.482711,0.49846 0.114468,0.279247 0.137404,0.586821 0.112037,0.885199 0.0091,0.03382 -0.0296,0.116476 0.01691,0.112671 0.1807399,-0.01163 0.3649671,-0.01374 0.5376731,-0.07504 0.166576,-0.04756 0.322899,-0.12768 0.455336,-0.239717 0.234855,-0.190674 0.455335,-0.402911 0.637131,-0.645376 0.04756,-0.05813 0.07399,-0.128103 0.104639,-0.195642 0.01585,-0.05073 0.0539,-0.01268 0.07716,0.0101 0.180951,0.176723 0.325753,0.387797 0.453645,0.605001 0.209911,0.36338 0.236335,0.804025 0.156746,1.210909 -0.03277,0.159495 -0.08456,0.318778 -0.15738,0.45597 -0.1466,0.2689955 -0.353023,0.5129395 -0.616839,0.6727505 -0.08138,0.04756 -0.179153,0.08033 -0.275125,0.09196 0.0687,-0.07927 0.15273,-0.146176 0.208643,-0.236863 0.0983,-0.136452 0.163194,-0.292247 0.242148,-0.4396925 -0.211919,0.0054 -0.425741,-0.01374 -0.63618,0.01691 -0.08033,0.0098 -0.158121,0.04439 -0.207375,0.110134 -0.02431,0.02114 -0.05496,0.04439 -0.08773,0.04016 0.0052,-0.05813 0.07293,-0.120387 0.02325,-0.1776745 -0.06976,-0.0613 -0.173023,-0.0539 -0.259588,-0.07187 -0.117639,-0.01163 -0.247221,-0.03699 -0.357673,0.01797 -0.02748,0.01797 -0.04756,0.04756 -0.07927,0.06025 -0.0017,-0.05391 2.32e-4,-0.114996 -0.04651,-0.152413 -0.1078099,-0.09196 -0.2638159,-0.111403 -0.3998459,-0.08878 -0.07293,0.0069 -0.127363,0.05813 -0.186447,0.09407 -0.101467,0.05073 -0.248172,0.05179 -0.317931,-0.05179 -0.13677,-0.187186 -0.208854,-0.414537 -0.356194,-0.595382 -0.122818,-0.166681 -0.311695,-0.283475 -0.518541,-0.307362 -0.400163,-0.05707 -0.802017,0.09935 -1.11719,0.338331 -0.0983,0.07716 -0.192365,0.158755 -0.288548,0.238237 0.230838,0.230839 0.47658,0.447515 0.692304,0.6928345 0.139413,0.16277 0.26741,0.347419 0.279988,0.56864 0.0082,0.129899 -0.0148,0.263604 -0.08773,0.373422 -0.09935,0.158331 -0.212447,0.316029 -0.366551,0.425106 -0.06025,0.03699 -0.119436,-0.02854 -0.162665,-0.06447 -0.186658,-0.19078 -0.312013,-0.433351 -0.409676,-0.67941 -0.04651,-0.107703 -0.0613,-0.229147 -0.122289,-0.330298 -0.03382,-0.04651 -0.09724,-0.01268 -0.107281,0.03488 -0.05179,0.138249 -0.01691,0.290134 0.0092,0.43018 0.08456,0.375641 0.248384,0.733526 0.485882,1.036977 0.265189,0.348267 0.582064,0.662922 0.955486,0.894078 0.09195,0.05708 0.199658,0.01374 0.289922,-0.02325 0.08033,-0.03065 0.160129,-0.0613 0.240246,-0.0909 -0.189089,-0.09195 -0.387691,-0.173975 -0.545071,-0.317932 -0.05496,-0.05073 -0.118379,-0.101468 -0.146283,-0.171967 0.05391,-0.03594 0.125989,-0.01163 0.187081,-0.02959 0.318883,-0.05285 0.614936,-0.204521 0.872516,-0.396041 0.143005,-0.106964 0.267832,-0.238766 0.357461,-0.393821 0.02537,-0.03911 0.05391,-0.0761 0.0835,-0.111403 0.02431,0.186553 0.02114,0.385683 -0.0148,0.574983 -0.03171,0.16034 -0.10041,0.3229 -0.161819,0.478166 -0.01374,0.05813 0.06025,0.07187 0.101467,0.05391 0.229782,-0.07187 0.443709,-0.186553 0.660068,-0.290874 0.5441201,-0.276393 1.0822471,-0.567056 1.5926071,-0.902533 0.532916,-0.362429 1.039831,-0.764495 1.508041,-1.20759 0.136664,-0.1310625 0.266246,-0.2691005 0.398894,-0.4040735 -0.03171,-0.306305 -0.05179,-0.616204 -0.141315,-0.912574 -0.154103,-0.533656 -0.421618,-1.041205 -0.807089,-1.443968 -0.255995,-0.25832 -0.56695,-0.456181 -0.891118,-0.617684 -0.5289,-0.257897 -1.118786,-0.388219 -1.7071291,-0.377438 z m 3.9026641,0.01585 c -0.08561,0.02431 -0.122289,0.118696 -0.169112,0.186236 -0.175032,0.313809 -0.344462,0.632587 -0.477638,0.966795 -0.0148,0.05391 -0.05708,0.119542 -0.0222,0.172284 0.05179,0.03594 0.124404,0.0096 0.184121,0.01057 0.383358,-0.04122 0.764918,-0.101467 1.142578,-0.178413 0.05919,-0.02114 0.143323,-0.01585 0.179048,-0.0761 0.02748,-0.05919 -0.03594,-0.101468 -0.08456,-0.116159 -0.11542,-0.0613 -0.226083,-0.131168 -0.33738,-0.199553 0.221221,-0.10633 0.451425,-0.219847 0.702663,-0.219952 0.08984,-0.002 0.207057,0.01691 0.234538,0.117956 0.04651,0.162031 -0.0148,0.329875 -0.06659,0.483133 -0.164145,0.420985 -0.409992,0.79874 -0.670214,1.166095 -0.515583,0.714501 -1.114611,1.368333 -1.766804,1.9579535 -0.721689,0.651929 -1.537794,1.194834 -2.404665,1.633797 -0.5777311,0.292354 -1.1750161,0.557649 -1.7867071,0.767137 -0.501102,0.167316 -1.017529,0.306305 -1.548046,0.338542 -0.179682,0.0087 -0.365812,0.0038 -0.5456,-0.01903 -0.04439,-0.0041 -0.09618,-0.02642 -0.09301,-0.07927 0.0075,-0.111932 0.08667,-0.203358 0.152519,-0.288971 0.117744,-0.14586 0.268149,-0.261491 0.433245,-0.349112 0.03911,-0.02431 0.103582,-0.04334 0.04439,-0.08667 -0.102524,-0.134234 -0.204732,-0.268255 -0.306833,-0.402594 -0.166682,0.163828 -0.344356,0.320151 -0.47267,0.517802 -0.04862,0.06976 -0.09407,0.1429 -0.133176,0.218895 0.07821,-0.2264 0.201138,-0.441701 0.372576,-0.610391 0.06659,-0.05602 0.136453,-0.108232 0.204309,-0.162771 -0.07822,-0.164779 -0.157063,-0.329347 -0.235595,-0.49402 -0.25314,0.295418 -0.52964,0.588089 -0.668946,0.95834 -0.03805,0.08773 -0.03488,0.184967 -0.05919,0.276076 0.0092,-0.216041 0.07821,-0.426375 0.164884,-0.622968 0.09195,-0.179894 0.209066,-0.343722 0.348795,-0.487256 0.06342,-0.0613 0.127257,-0.123241 0.19078,-0.184967 -0.05602,-0.197545 -0.08561,-0.404496 -0.17186,-0.592 -0.01691,-0.04651 -0.07293,-0.111509 -0.122501,-0.06447 -0.130111,0.146282 -0.233059,0.314761 -0.342031,0.476897 -0.205471,0.327339 -0.376909,0.684484 -0.445717,1.067175 -0.03065,0.156535 -0.0099,0.31846 0.04756,0.466434 0.12155,0.348477 0.424473,0.613773 0.771682,0.72581 0.335371,0.114574 0.697589,0.08984 1.044164,0.05391 0.491061,-0.05602 0.971658,-0.180211 1.439667,-0.33664 0.122606,-0.04228 0.261596,-0.04862 0.39139,-0.01903 0.265718,0.05708 0.533233,0.112777 0.805716,0.123875 0.8062441,0.04651 1.6285011,-0.193106 2.2733701,-0.681736 0.637871,-0.475735 1.0914,-1.180966 1.288131,-1.949794 0.03911,-0.164991 0.08878,-0.324485 0.191202,-0.463896 0.183065,-0.252823 0.406822,-0.4764755 0.606058,-0.7192575 0.429017,-0.513574 0.839221,-1.050084 1.149997,-1.645001 0.133916,-0.268677 0.261174,-0.553526 0.274597,-0.857823 0.01163,-0.18613 -0.06764,-0.385471 -0.23475,-0.480492 -0.223862,-0.130956 -0.50163,-0.102524 -0.740184,-0.03065 -0.191098,0.05496 -0.363804,0.161502 -0.544014,0.2394 -0.04228,-0.148185 -0.04334,-0.307257 -0.101468,-0.450685 -0.0148,-0.03277 -0.04756,-0.06236 -0.08561,-0.05496 z m -4.0995961,0.438108 c 0.05073,9.51e-4 0.101468,0.002 0.151884,0.01028 -0.105695,0.08878 -0.24088,0.132965 -0.349217,0.217098 -0.02431,0.02854 -0.02008,0.06976 0.02325,0.07187 0.09724,-0.02114 0.195113,-0.04545 0.295313,-0.05285 0.2037799,-0.01902 0.4102031,-0.03276 0.6153581,-0.0034 0.02008,0.003 0.09301,0.0222 0.04228,0.04016 -0.157909,0.08878 -0.340973,0.138039 -0.4785882,0.259905 -0.04545,0.04756 0.01585,0.115525 0.07187,0.0983 0.07716,-0.01902 0.1522022,-0.04651 0.2323192,-0.05179 0.243945,-0.02854 0.495077,-0.04439 0.743884,-0.02854 -0.0099,0.01797 -0.06447,0.04333 -0.09195,0.06236 -0.15347,0.09407 -0.332729,0.14829 -0.469182,0.268466 -0.04016,0.03699 -0.0023,0.09618 0.04862,0.08667 0.161714,-0.01163 0.297004,-0.116159 0.455547,-0.143217 0.124509,-0.02642 0.257685,-0.05073 0.382829,-0.01691 0.05496,0.0222 0.0092,0.08773 -0.0094,0.120915 -0.12694,0.185707 -0.292565,0.341079 -0.453434,0.496769 -0.157697,0.151355 -0.340339,0.284954 -0.554583,0.341607 -0.08244,0.02325 -0.16647,0.06447 -0.2539862,0.05602 -0.04756,-0.03382 -0.03277,-0.106224 -0.03911,-0.157592 0.0062,-0.254832 -0.02854,-0.514948 -0.1426889,-0.745681 -0.177357,-0.37839 -0.541266,-0.65436 -0.946925,-0.744835 -0.13529,-0.03488 -0.275759,-0.03699 -0.412952,-0.06025 0.263076,-0.06659 0.544965,-0.09301 0.818928,-0.114045 0.106224,-0.0074 0.210968,-0.01163 0.319623,-0.01163 z m 4.3034401,4.0771245 c -0.05602,0.0084 -0.0613,0.08244 -0.08033,0.125883 -0.04122,0.148502 -0.08667,0.298484 -0.0983,0.452694 -0.0037,0.144274 0.126095,0.237286 0.206,0.339387 0.194691,0.238661 0.342876,0.518542 0.420457,0.817026 0.01268,0.0539 0.02114,0.108655 0.02114,0.163933 -0.03277,-0.215407 -0.144592,-0.409358 -0.259377,-0.591154 -0.108866,-0.175349 -0.258214,-0.318777 -0.406504,-0.460092 -0.02748,-0.0148 -0.06976,-0.09301 -0.08773,-0.06659 -0.03911,0.123346 -0.09935,0.241302 -0.120916,0.369511 -0.0087,0.126834 0.106541,0.210017 0.179471,0.297321 0.156429,0.174503 0.292987,0.380715 0.333786,0.615253 -0.09407,-0.217838 -0.238238,-0.411155 -0.396675,-0.586292 -0.05708,-0.05179 -0.115314,-0.131274 -0.200293,-0.124404 -0.150721,0.05179 -0.243628,0.192471 -0.352917,0.299541 -0.05179,0.03382 0.04016,0.05285 0.06025,0.07927 0.227668,0.147023 0.437367,0.332729 0.578576,0.566316 0.02854,0.04651 0.05813,0.131697 -0.0047,0.163405 -0.124614,0.03594 -0.24775,0.02748 -0.376698,0.03699 -0.34203,0.0079 -0.683426,-0.03805 -1.015838,-0.116794 -0.171227,-0.03065 -0.342559,-0.08244 -0.517908,-0.07399 -0.07927,0.0087 -0.158965,0.05496 -0.201032,0.122923 -0.02114,0.07399 0.07082,0.103582 0.124932,0.122184 0.349006,0.107598 0.705411,0.192683 1.065156,0.255254 0.432082,0.06448 0.887735,0.05602 1.298615,-0.105695 0.382089,-0.143746 0.67941,-0.516216 0.687126,-0.931176 0.01268,-0.379975 -0.143006,-0.741348 -0.324591,-1.066942 -0.132119,-0.227457 -0.27449,-0.451531 -0.448676,-0.649287 -0.0222,-0.0222 -0.04756,-0.05391 -0.08244,-0.05391 z"/>
    <path id="path836-99" style="fill:#bebebe;fill-opacity:1;stroke-width:0.0551293" d="m 16.021383,16.125741 c -0.0687,0.02008 -0.05073,0.107068 -0.05919,0.161925 -0.01797,0.138249 -0.05813,0.27206 -0.09513,0.405975 -0.281783,-0.135712 -0.572657,-0.295947 -0.894922,-0.288971 -0.176934,-7.72e-4 -0.343722,0.07927 -0.474573,0.19448 -0.108549,0.08561 -0.101467,0.236229 -0.102524,0.361055 -0.0078,0.217627 0.02959,0.436733 0.120598,0.635335 0.164462,0.378706 0.393821,0.724859 0.625506,1.065178 0.241408,0.352916 0.510085,0.68575 0.787747,1.010447 0.04439,0.05391 0.08984,0.106963 0.13455,0.160446 0.0069,-0.135079 0.03699,-0.270263 0.02431,-0.405659 -0.03171,-0.177675 -0.1726,-0.305143 -0.278084,-0.441913 -0.343933,-0.419927 -0.648019,-0.874417 -0.892069,-1.359676 -0.111086,-0.227139 -0.214562,-0.472458 -0.201033,-0.730355 8.35e-4,-0.07822 0.07187,-0.132331 0.145331,-0.13751 0.188878,-0.03594 0.373845,0.03805 0.549616,0.09724 0.07293,0.02854 0.143535,0.05391 0.210651,0.09724 -0.125883,0.113834 -0.287491,0.184438 -0.403016,0.309581 -0.03488,0.04651 0.02325,0.08139 0.06447,0.08667 0.314866,0.0761 0.637237,0.116053 0.9576,0.161185 0.143429,0.0148 0.287597,0.04228 0.432083,0.03488 0.0687,-0.0079 0.104638,-0.0835 0.07927,-0.144803 -0.05919,-0.18687 -0.162348,-0.355982 -0.248807,-0.531014 -0.122395,-0.227244 -0.233903,-0.462206 -0.381137,-0.674759 -0.02537,-0.03065 -0.05602,-0.07504 -0.102525,-0.06765 z m 3.661362,0.0613 c -0.591577,0.01023 -1.17861,0.168373 -1.696559,0.453857 -0.18687,0.103582 -0.378284,0.206422 -0.53873,0.349322 -0.03805,0.02748 -0.06025,0.100412 -0.0032,0.117745 0.135079,-9.51e-4 0.262019,-0.06025 0.392553,-0.08878 0.248384,-0.05813 0.507549,-0.04333 0.748852,0.01374 0.154315,0.03699 0.315923,0.09724 0.454701,0.17482 0.203887,0.114045 0.399106,0.273222 0.482711,0.498459 0.114468,0.279248 0.137404,0.586822 0.112037,0.885199 0.0091,0.03382 -0.0296,0.116477 0.01691,0.112672 0.18074,-0.01163 0.364967,-0.01374 0.537673,-0.07504 0.166576,-0.04756 0.322899,-0.12768 0.455336,-0.239717 0.234855,-0.190674 0.455335,-0.402912 0.637131,-0.645377 0.04756,-0.05813 0.07399,-0.128102 0.104639,-0.195641 0.01585,-0.05073 0.0539,-0.01268 0.07716,0.0101 0.180951,0.176723 0.325753,0.387797 0.453645,0.605 0.209911,0.36338 0.236335,0.804026 0.156746,1.21091 -0.03277,0.159494 -0.08456,0.318778 -0.15738,0.45597 -0.1466,0.268995 -0.353023,0.512939 -0.616839,0.67275 -0.08138,0.04756 -0.179153,0.08033 -0.275125,0.09196 0.0687,-0.07927 0.15273,-0.146176 0.208643,-0.236863 0.0983,-0.136452 0.163194,-0.292247 0.242148,-0.439692 -0.211919,0.0054 -0.425741,-0.01374 -0.63618,0.01691 -0.08033,0.0098 -0.158121,0.04439 -0.207375,0.110134 -0.02431,0.02114 -0.05496,0.04439 -0.08773,0.04016 0.0052,-0.05813 0.07293,-0.120387 0.02325,-0.177677 -0.06976,-0.0613 -0.173023,-0.0539 -0.259588,-0.07187 -0.117639,-0.01163 -0.247221,-0.03699 -0.357673,0.01797 -0.02748,0.01797 -0.04756,0.04756 -0.07927,0.06025 -0.0017,-0.05391 2.32e-4,-0.114996 -0.04651,-0.152413 -0.10781,-0.09196 -0.263816,-0.111403 -0.399846,-0.08878 -0.07293,0.0069 -0.127363,0.05813 -0.186447,0.09407 -0.101467,0.05073 -0.248172,0.05179 -0.317931,-0.05179 -0.13677,-0.187184 -0.208854,-0.414535 -0.356194,-0.59538 -0.122818,-0.166681 -0.311695,-0.283475 -0.518541,-0.307362 -0.400163,-0.05707 -0.802017,0.09935 -1.11719,0.338331 -0.0983,0.07716 -0.192365,0.158755 -0.288548,0.238237 0.230838,0.230839 0.47658,0.447515 0.692304,0.692835 0.139413,0.16277 0.26741,0.347419 0.279988,0.56864 0.0082,0.129899 -0.0148,0.263604 -0.08773,0.373422 -0.09935,0.158331 -0.212447,0.316029 -0.366551,0.425106 -0.06025,0.03699 -0.119436,-0.02854 -0.162665,-0.06447 -0.186658,-0.19078 -0.312013,-0.433351 -0.409676,-0.67941 -0.04651,-0.107703 -0.0613,-0.229147 -0.122289,-0.330298 -0.03382,-0.04651 -0.09724,-0.01268 -0.107281,0.03488 -0.05179,0.138249 -0.01691,0.290134 0.0092,0.43018 0.08456,0.375641 0.248384,0.733526 0.485882,1.036977 0.265189,0.348267 0.582064,0.662922 0.955486,0.894078 0.09195,0.05708 0.199658,0.01374 0.289922,-0.02325 0.08033,-0.03065 0.160129,-0.0613 0.240246,-0.0909 -0.189089,-0.09195 -0.387691,-0.173975 -0.545071,-0.317932 -0.05496,-0.05073 -0.118379,-0.101468 -0.146283,-0.171967 0.05391,-0.03594 0.125989,-0.01163 0.187081,-0.02959 0.318883,-0.05285 0.614936,-0.204521 0.872516,-0.396041 0.143005,-0.106964 0.267832,-0.238766 0.357461,-0.393822 0.02537,-0.03911 0.05391,-0.0761 0.0835,-0.111402 0.02431,0.186553 0.02114,0.385683 -0.0148,0.574983 -0.03171,0.16034 -0.10041,0.3229 -0.161819,0.478166 -0.01374,0.05813 0.06025,0.07187 0.101467,0.05391 0.229782,-0.07187 0.443709,-0.186553 0.660068,-0.290875 0.54412,-0.276393 1.082247,-0.567055 1.592607,-0.902533 0.532916,-0.362429 1.039831,-0.764495 1.508041,-1.207589 0.136664,-0.131063 0.266246,-0.269101 0.398894,-0.404074 -0.03171,-0.306305 -0.05179,-0.616204 -0.141315,-0.912574 -0.154103,-0.533656 -0.421618,-1.041205 -0.807089,-1.443968 -0.255995,-0.25832 -0.56695,-0.456181 -0.891118,-0.617684 -0.5289,-0.257897 -1.118786,-0.388219 -1.707129,-0.377438 z m 3.902664,0.01585 c -0.08561,0.02431 -0.122289,0.118696 -0.169112,0.186237 -0.175032,0.313809 -0.344462,0.632587 -0.477638,0.966794 -0.0148,0.05391 -0.05708,0.119543 -0.0222,0.172284 0.05179,0.03594 0.124404,0.0096 0.184121,0.01057 0.383358,-0.04122 0.764918,-0.101467 1.142578,-0.178413 0.05919,-0.02114 0.143323,-0.01585 0.179048,-0.0761 0.02748,-0.05919 -0.03594,-0.101468 -0.08456,-0.116159 -0.11542,-0.0613 -0.226083,-0.131168 -0.33738,-0.199553 0.221221,-0.10633 0.451425,-0.219847 0.702663,-0.219952 0.08984,-0.002 0.207057,0.01691 0.234538,0.117956 0.04651,0.162031 -0.0148,0.329875 -0.06659,0.483132 -0.164145,0.420986 -0.409992,0.798741 -0.670214,1.166096 -0.515583,0.714501 -1.114611,1.368333 -1.766804,1.957953 -0.721689,0.651929 -1.537794,1.194834 -2.404665,1.633797 -0.577731,0.292354 -1.175016,0.557649 -1.786707,0.767137 -0.501102,0.167316 -1.017529,0.306305 -1.548046,0.338542 -0.179682,0.0087 -0.365812,0.0038 -0.5456,-0.01903 -0.04439,-0.0041 -0.09618,-0.02642 -0.09301,-0.07927 0.0075,-0.111932 0.08667,-0.203358 0.152519,-0.288971 0.117744,-0.14586 0.268149,-0.261491 0.433245,-0.349112 0.03911,-0.02431 0.103582,-0.04334 0.04439,-0.08667 -0.102524,-0.134234 -0.204732,-0.268255 -0.306833,-0.402594 -0.166682,0.163828 -0.344356,0.320151 -0.47267,0.517802 -0.04862,0.06976 -0.09407,0.1429 -0.133176,0.218895 0.07821,-0.2264 0.201138,-0.441701 0.372576,-0.610391 0.06659,-0.05602 0.136453,-0.108232 0.204309,-0.162771 -0.07822,-0.164779 -0.157063,-0.329347 -0.235595,-0.49402 -0.25314,0.295418 -0.52964,0.588089 -0.668946,0.95834 -0.03805,0.08773 -0.03488,0.184967 -0.05919,0.276076 0.0092,-0.216041 0.07821,-0.426375 0.164884,-0.622968 0.09195,-0.179894 0.209066,-0.343722 0.348795,-0.487256 0.06342,-0.0613 0.127257,-0.123241 0.19078,-0.184967 -0.05602,-0.197545 -0.08561,-0.404496 -0.17186,-0.592 -0.01691,-0.04651 -0.07293,-0.111509 -0.122501,-0.06447 -0.130111,0.146282 -0.233059,0.314761 -0.342031,0.476897 -0.205471,0.327339 -0.376909,0.684484 -0.445717,1.067175 -0.03065,0.156535 -0.0099,0.31846 0.04756,0.466434 0.12155,0.348477 0.424473,0.613773 0.771682,0.72581 0.335371,0.114574 0.697589,0.08984 1.044164,0.05391 0.491061,-0.05602 0.971658,-0.180211 1.439667,-0.33664 0.122606,-0.04228 0.261596,-0.04862 0.39139,-0.01903 0.265718,0.05708 0.533233,0.112777 0.805716,0.123875 0.806244,0.04651 1.628501,-0.193106 2.27337,-0.681736 0.637871,-0.475735 1.0914,-1.180966 1.288131,-1.949794 0.03911,-0.164991 0.08878,-0.324485 0.191202,-0.463896 0.183065,-0.252823 0.406822,-0.476476 0.606058,-0.719258 0.429017,-0.513574 0.839221,-1.050084 1.149997,-1.645001 0.133916,-0.268677 0.261174,-0.553526 0.274597,-0.857823 0.01163,-0.18613 -0.06764,-0.385471 -0.23475,-0.480492 -0.223862,-0.130956 -0.50163,-0.102524 -0.740184,-0.03065 -0.191098,0.05496 -0.363804,0.161502 -0.544014,0.2394 -0.04228,-0.148185 -0.04334,-0.307257 -0.101468,-0.450685 -0.0148,-0.03277 -0.04756,-0.06236 -0.08561,-0.05496 z m -4.099596,0.438108 c 0.05073,9.52e-4 0.101468,0.002 0.151884,0.01028 -0.105695,0.08878 -0.24088,0.132964 -0.349217,0.217098 -0.02431,0.02854 -0.02008,0.06976 0.02325,0.07187 0.09724,-0.02114 0.195113,-0.04545 0.295313,-0.05285 0.20378,-0.01902 0.410203,-0.03276 0.615358,-0.0034 0.02008,0.003 0.09301,0.0222 0.04228,0.04016 -0.157909,0.08878 -0.340973,0.138039 -0.478588,0.259905 -0.04545,0.04756 0.01585,0.115525 0.07187,0.0983 0.07716,-0.01902 0.152202,-0.04651 0.232319,-0.05179 0.243945,-0.02854 0.495077,-0.04439 0.743884,-0.02854 -0.0099,0.01797 -0.06447,0.04333 -0.09195,0.06236 -0.15347,0.09407 -0.332729,0.14829 -0.469182,0.268466 -0.04016,0.03699 -0.0023,0.09618 0.04862,0.08667 0.161714,-0.01163 0.297004,-0.11616 0.455547,-0.143217 0.124509,-0.02642 0.257685,-0.05073 0.382829,-0.01691 0.05496,0.0222 0.0092,0.08773 -0.0094,0.120915 -0.12694,0.185707 -0.292565,0.341079 -0.453434,0.496769 -0.157697,0.151355 -0.340339,0.284955 -0.554583,0.341607 -0.08244,0.02325 -0.16647,0.06447 -0.253986,0.05602 -0.04756,-0.03382 -0.03277,-0.106224 -0.03911,-0.157591 0.0062,-0.254832 -0.02854,-0.514949 -0.142689,-0.745681 -0.177357,-0.37839 -0.541266,-0.654361 -0.946925,-0.744836 -0.13529,-0.03488 -0.275759,-0.03699 -0.412952,-0.06025 0.263076,-0.06659 0.544965,-0.09301 0.818928,-0.114044 0.106224,-0.0074 0.210968,-0.01163 0.319623,-0.01163 z m 4.30344,4.077125 c -0.05602,0.0084 -0.0613,0.08244 -0.08033,0.125883 -0.04122,0.148502 -0.08667,0.298484 -0.0983,0.452694 -0.0037,0.144274 0.126095,0.237286 0.206,0.339387 0.194691,0.238661 0.342876,0.518542 0.420457,0.817026 0.01268,0.0539 0.02114,0.108655 0.02114,0.163933 -0.03277,-0.215407 -0.144592,-0.409358 -0.259377,-0.591154 -0.108866,-0.175349 -0.258214,-0.318777 -0.406504,-0.460092 -0.02748,-0.0148 -0.06976,-0.09301 -0.08773,-0.06659 -0.03911,0.123346 -0.09935,0.241302 -0.120916,0.369511 -0.0087,0.126834 0.106541,0.210017 0.179471,0.297321 0.156429,0.174503 0.292987,0.380715 0.333786,0.615253 -0.09407,-0.217838 -0.238238,-0.411155 -0.396675,-0.586292 -0.05708,-0.05179 -0.115314,-0.131274 -0.200293,-0.124404 -0.150721,0.05179 -0.243628,0.192471 -0.352917,0.299541 -0.05179,0.03382 0.04016,0.05285 0.06025,0.07927 0.227668,0.147023 0.437367,0.332729 0.578576,0.566316 0.02854,0.04651 0.05813,0.131697 -0.0047,0.163405 -0.124614,0.03594 -0.24775,0.02748 -0.376698,0.03699 -0.34203,0.0079 -0.683426,-0.03805 -1.015838,-0.116794 -0.171227,-0.03065 -0.342559,-0.08244 -0.517908,-0.07399 -0.07927,0.0087 -0.158965,0.05496 -0.201032,0.122923 -0.02114,0.07399 0.07082,0.103582 0.124932,0.122184 0.349006,0.107598 0.705411,0.192683 1.065156,0.255254 0.432082,0.06448 0.887735,0.05602 1.298615,-0.105695 0.382089,-0.143746 0.67941,-0.516216 0.687126,-0.931176 0.01268,-0.379975 -0.143006,-0.741348 -0.324591,-1.066942 -0.132119,-0.227457 -0.27449,-0.451531 -0.448676,-0.649287 -0.0222,-0.0222 -0.04756,-0.05391 -0.08244,-0.05391 z"/>
    <path id="path836-28" style="fill:#bebebe;fill-opacity:1;stroke-width:0.208363" d="M 139.65625 0 C 139.94843 0.29235508 140.23471 0.58982313 140.50781 0.90039062 C 141.03473 1.5155843 141.51887 2.2146705 141.56641 3.0507812 C 141.5974 3.5417381 141.51001 4.0458773 141.23438 4.4609375 C 140.85888 5.0593539 140.43205 5.6560998 139.84961 6.0683594 C 139.62189 6.2081641 139.39775 5.9600171 139.23438 5.8242188 C 138.5289 5.1031605 138.05467 4.1858461 137.68555 3.2558594 C 137.50976 2.8487929 137.45512 2.3901155 137.22461 2.0078125 C 137.09679 1.8320267 136.85631 1.9608707 136.81836 2.140625 C 136.62262 2.6631409 136.75483 3.2363173 136.85352 3.765625 C 137.17311 5.1853705 137.79182 6.5386455 138.68945 7.6855469 C 139.69174 9.0018316 140.88942 10.190793 142.30078 11.064453 C 142.64831 11.280189 143.05533 11.116367 143.39648 10.976562 C 143.70009 10.860721 144.00188 10.744687 144.30469 10.632812 C 143.59002 10.285286 142.83896 9.9757301 142.24414 9.4316406 C 142.03642 9.2399052 141.79687 9.0477029 141.69141 8.78125 C 141.89516 8.6454138 142.16754 8.7378022 142.39844 8.6699219 C 143.60366 8.4701738 144.72373 7.8957301 145.69727 7.171875 C 146.23776 6.7676016 146.70812 6.2696321 147.04688 5.6835938 C 147.14275 5.5357764 147.25145 5.3970968 147.36328 5.2636719 C 147.45516 5.9687541 147.44248 6.7200823 147.30664 7.4355469 C 147.18679 8.0415563 146.92741 8.6573085 146.69531 9.2441406 C 146.64338 9.4638446 146.92235 9.5151459 147.07812 9.4472656 C 147.94659 9.175631 148.75648 8.7419441 149.57422 8.3476562 C 149.71651 8.2753753 149.85795 8.201733 150 8.1289062 L 150 0 L 139.65625 0 z M 134.8457 3.3242188 C 134.79852 3.3233975 134.74996 3.3422725 134.70312 3.3867188 C 134.21138 3.9395955 133.82202 4.5766556 133.41016 5.1894531 C 132.63357 6.4266399 131.98662 7.7762652 131.72656 9.2226562 C 131.61072 9.8142846 131.68908 10.427056 131.90625 10.986328 C 132.36565 12.303407 133.50998 13.305069 134.82227 13.728516 C 136.08981 14.161551 137.45964 14.067439 138.76953 13.931641 C 140.62551 13.719911 142.44208 13.251384 144.21094 12.660156 C 144.67433 12.500358 145.19889 12.476054 145.68945 12.587891 C 146.69374 12.803626 147.70452 13.014695 148.73438 13.056641 C 149.15573 13.080947 149.57828 13.083067 150 13.066406 L 150 8.90625 C 148.03513 9.8726942 146.01276 10.747701 143.94727 11.455078 C 142.05334 12.087454 140.10276 12.612534 138.09766 12.734375 C 137.41854 12.767257 136.71467 12.748396 136.03516 12.662109 C 135.86738 12.646613 135.67161 12.563029 135.68359 12.363281 C 135.71194 11.940231 136.01089 11.595061 136.25977 11.271484 C 136.70478 10.720202 137.2725 10.282338 137.89648 9.9511719 C 138.0443 9.8592916 138.28817 9.7887669 138.06445 9.625 C 137.67696 9.1176589 137.29214 8.6112536 136.90625 8.1035156 C 136.27627 8.7227081 135.60411 9.3135194 135.11914 10.060547 C 134.93538 10.324207 134.76304 10.599494 134.61523 10.886719 C 134.91083 10.031034 135.37548 9.2176466 136.02344 8.5800781 C 136.27512 8.368349 136.54041 8.1709753 136.79688 7.9648438 C 136.50124 7.342057 136.20306 6.7200424 135.90625 6.0976562 C 134.9495 7.2141967 133.90346 8.3193761 133.37695 9.71875 C 133.23314 10.050328 133.24618 10.419323 133.1543 10.763672 C 133.18907 9.9471389 133.44976 9.1512318 133.77734 8.4082031 C 134.12487 7.7282888 134.56759 7.108897 135.0957 6.5664062 C 135.3354 6.3347213 135.57632 6.1004826 135.81641 5.8671875 C 135.60468 5.1205607 135.492 4.3395359 135.16602 3.6308594 C 135.11808 3.49902 134.98726 3.3266824 134.8457 3.3242188 z " transform="scale(0.26458333)"/>
    <path id="path836-1" style="fill:#bebebe;fill-opacity:1;stroke-width:0.208363" d="M 64.652344 0 C 64.94497 0.2927682 65.23431 0.58936525 65.507812 0.90039062 C 66.034728 1.5155843 66.518867 2.2146704 66.566406 3.0507812 C 66.597398 3.5417381 66.510016 4.0458773 66.234375 4.4609375 C 65.858879 5.0593539 65.43205 5.6560998 64.849609 6.0683594 C 64.621893 6.2081641 64.39776 5.9600172 64.234375 5.8242188 C 63.528896 5.1031605 63.054667 4.1858461 62.685547 3.2558594 C 62.509761 2.8487929 62.455119 2.3901155 62.224609 2.0078125 C 62.096786 1.8320267 61.85631 1.9608707 61.818359 2.140625 C 61.622618 2.6631409 61.754832 3.2363173 61.853516 3.765625 C 62.173112 5.1853705 62.791823 6.5386455 63.689453 7.6855469 C 64.691742 9.0018316 65.889423 10.190793 67.300781 11.064453 C 67.648309 11.280189 68.055329 11.116367 68.396484 10.976562 C 68.700094 10.86072 69.001883 10.744687 69.304688 10.632812 C 68.59002 10.285285 67.838963 9.9757301 67.244141 9.4316406 C 67.036418 9.2399052 66.79687 9.0477029 66.691406 8.78125 C 66.895161 8.6454138 67.167539 8.7378022 67.398438 8.6699219 C 68.603665 8.4701738 69.723735 7.8957301 70.697266 7.171875 C 71.237757 6.7676016 71.70812 6.2696322 72.046875 5.6835938 C 72.142762 5.5357764 72.251445 5.3970968 72.363281 5.2636719 C 72.455162 5.9687541 72.442477 6.7200823 72.306641 7.4355469 C 72.186792 8.0415563 71.92741 8.6573085 71.695312 9.2441406 C 71.643382 9.4638446 71.922344 9.5151459 72.078125 9.4472656 C 72.946592 9.175631 73.756484 8.7419441 74.574219 8.3476562 C 76.630735 7.3030213 78.66483 6.2054483 80.59375 4.9375 C 82.607921 3.5676896 84.523356 2.0477329 86.292969 0.37304688 C 86.420772 0.25048115 86.546768 0.12521877 86.671875 0 L 82.806641 0 C 82.254405 0.99638825 81.48424 1.8983336 80.503906 2.4921875 C 80.196328 2.6719418 79.827573 2.7958878 79.464844 2.8398438 C 79.724497 2.5402406 80.042582 2.2861134 80.253906 1.9433594 C 80.625434 1.4276353 80.86956 0.84047746 81.167969 0.28320312 C 80.367015 0.30361257 79.559032 0.22986061 78.763672 0.34570312 C 78.460062 0.3827425 78.166626 0.51323749 77.980469 0.76171875 C 77.888588 0.84161796 77.772293 0.9300499 77.648438 0.9140625 C 77.668091 0.69435856 77.924095 0.45871663 77.736328 0.2421875 C 77.521857 0.053725782 77.225232 0.036210495 76.945312 0 L 75.5 0 C 75.467648 0.012391938 75.435872 0.023350915 75.404297 0.0390625 C 75.300435 0.10698061 75.223364 0.21961592 75.103516 0.26757812 C 75.100766 0.18037498 75.099156 0.087999902 75.085938 0 L 64.652344 0 z M 87.25 0 C 86.456286 0.82108315 85.634694 1.6163592 84.789062 2.3808594 C 82.061419 4.844843 78.977535 6.8975679 75.701172 8.5566406 C 73.517622 9.6616006 71.259169 10.663312 68.947266 11.455078 C 67.053337 12.087454 65.10276 12.612534 63.097656 12.734375 C 62.418543 12.767257 61.71467 12.748396 61.035156 12.662109 C 60.867383 12.646613 60.671613 12.563029 60.683594 12.363281 C 60.71194 11.940231 61.010888 11.595061 61.259766 11.271484 C 61.704782 10.720202 62.272499 10.282338 62.896484 9.9511719 C 63.044302 9.8592916 63.288171 9.7887669 63.064453 9.625 C 62.676961 9.1176589 62.292144 8.6112536 61.90625 8.1035156 C 61.276271 8.7227081 60.604107 9.3135195 60.119141 10.060547 C 59.93538 10.324207 59.763037 10.599494 59.615234 10.886719 C 59.910831 10.031034 60.375483 9.2176466 61.023438 8.5800781 C 61.275116 8.368349 61.540411 8.1709754 61.796875 7.9648438 C 61.50124 7.342057 61.203064 6.7200424 60.90625 6.0976562 C 59.9495 7.2141967 58.903464 8.3193761 58.376953 9.71875 C 58.233142 10.050328 58.246177 10.419323 58.154297 10.763672 C 58.189069 9.947139 58.449757 9.1512318 58.777344 8.4082031 C 59.124871 7.7282888 59.567594 7.108897 60.095703 6.5664062 C 60.335401 6.3347212 60.576319 6.1004826 60.816406 5.8671875 C 60.604677 5.1205607 60.492 4.3395359 60.166016 3.6308594 C 60.102104 3.4550735 59.89048 3.2089336 59.703125 3.3867188 C 59.211367 3.9395956 58.822019 4.5766556 58.410156 5.1894531 C 57.633573 6.4266399 56.986624 7.7762651 56.726562 9.2226562 C 56.61072 9.8142846 56.689078 10.427056 56.90625 10.986328 C 57.365652 12.303407 58.50998 13.305069 59.822266 13.728516 C 61.08981 14.161551 62.459641 14.067439 63.769531 13.931641 C 65.62551 13.719911 67.442085 13.251384 69.210938 12.660156 C 69.67433 12.500358 70.198893 12.476054 70.689453 12.587891 C 71.693742 12.803626 72.704518 13.014695 73.734375 13.056641 C 76.781596 13.232426 79.888872 12.327259 82.326172 10.480469 C 84.737023 8.6824152 86.451762 6.0171347 87.195312 3.1113281 C 87.34313 2.4877401 87.530862 1.8843296 87.917969 1.3574219 C 88.259874 0.88523217 88.64007 0.44037368 89.027344 0 L 87.25 0 z M 89.912109 3.3046875 C 89.70038 3.3364355 89.681299 3.617056 89.609375 3.78125 C 89.453583 4.3425174 89.280284 4.9093466 89.236328 5.4921875 C 89.222344 6.0374751 89.713622 6.387544 90.015625 6.7734375 C 90.751465 7.6754633 91.312249 8.7331996 91.605469 9.8613281 C 91.653393 10.065045 91.685547 10.273497 91.685547 10.482422 C 91.561692 9.6682852 91.138911 8.9351499 90.705078 8.2480469 C 90.293616 7.5853105 89.728435 7.0419164 89.167969 6.5078125 C 89.064107 6.4518755 88.903856 6.1579574 88.835938 6.2578125 C 88.68812 6.7240021 88.460416 7.1697274 88.378906 7.6542969 C 88.346024 8.1336695 88.782953 8.4473759 89.058594 8.7773438 C 89.649821 9.4368826 90.164158 10.21512 90.318359 11.101562 C 89.962819 10.278238 89.41913 9.5486539 88.820312 8.8867188 C 88.604577 8.690977 88.38368 8.3900503 88.0625 8.4160156 C 87.492846 8.6117574 87.141576 9.1441541 86.728516 9.5488281 C 86.532774 9.6766517 86.881101 9.7478011 86.957031 9.8476562 C 87.817509 10.403334 88.608875 11.105433 89.142578 11.988281 C 89.250446 12.164067 89.362468 12.485627 89.125 12.605469 C 88.654018 12.741305 88.188534 12.71015 87.701172 12.746094 C 86.40846 12.775952 85.119642 12.602303 83.863281 12.304688 C 83.216124 12.188845 82.567033 11.993454 81.904297 12.025391 C 81.604694 12.058273 81.303525 12.233366 81.144531 12.490234 C 81.064632 12.769882 81.41267 12.880865 81.617188 12.951172 C 82.936265 13.357841 84.282912 13.679527 85.642578 13.916016 C 87.275644 14.15972 88.997849 14.126831 90.550781 13.515625 C 91.994897 12.972333 93.119275 11.5664 93.148438 9.9980469 C 93.196362 8.5619209 92.608181 7.1954352 91.921875 5.9648438 C 91.422528 5.1051638 90.884903 4.2571899 90.226562 3.5097656 C 90.142657 3.4258601 90.045892 3.3066406 89.914062 3.3066406 L 89.912109 3.3046875 z " transform="scale(0.26458333)"/>
    <path id="path836-24" style="fill:#bebebe;fill-opacity:1;stroke-width:0.208363" d="M 0 0 L 0 8.1289062 C 1.9109363 7.1490911 3.7982969 6.1177158 5.59375 4.9375 C 7.6079207 3.5676896 9.523356 2.0477329 11.292969 0.37304688 C 11.421434 0.2498461 11.548067 0.12589092 11.673828 0 L 7.8066406 0 C 7.2543835 0.99639766 6.4842403 1.8983336 5.5039062 2.4921875 C 5.1963284 2.6719418 4.8275725 2.7958878 4.4648438 2.8398438 C 4.7244972 2.5402406 5.0425816 2.2861134 5.2539062 1.9433594 C 5.6254338 1.4276353 5.8695599 0.84047746 6.1679688 0.28320312 C 5.367015 0.30361257 4.5590321 0.22986062 3.7636719 0.34570312 C 3.4600624 0.3827425 3.1666255 0.51323749 2.9804688 0.76171875 C 2.8885884 0.84161796 2.7722926 0.9300499 2.6484375 0.9140625 C 2.668091 0.69435856 2.9240951 0.45871663 2.7363281 0.2421875 C 2.5218569 0.053725785 2.2250716 0.036173395 1.9453125 0 L 0.50195312 0 C 0.46937782 0.012459694 0.43608832 0.023243342 0.40429688 0.0390625 C 0.30043546 0.10698061 0.22336444 0.21961593 0.10351562 0.26757812 C 0.10075258 0.179957 0.099714494 0.088208342 0.0859375 0 L 0 0 z M 12.25 0 C 11.455979 0.82147777 10.635037 1.6160492 9.7890625 2.3808594 C 7.061419 4.8448429 3.9775349 6.8975679 0.70117188 8.5566406 C 0.46848109 8.674391 0.23434578 8.7890007 0 8.9042969 L 0 13.066406 C 2.6284077 12.962571 5.2257635 12.07199 7.3261719 10.480469 C 9.7370228 8.682415 11.451763 6.0171347 12.195312 3.1113281 C 12.34313 2.4877401 12.530862 1.8843296 12.917969 1.3574219 C 13.259876 0.88522807 13.639967 0.44045065 14.027344 0 L 12.25 0 z M 14.912109 3.3046875 C 14.70038 3.3364355 14.681299 3.617056 14.609375 3.78125 C 14.453583 4.3425174 14.280284 4.9093466 14.236328 5.4921875 C 14.222344 6.0374751 14.713622 6.387544 15.015625 6.7734375 C 15.751465 7.6754633 16.312249 8.7331996 16.605469 9.8613281 C 16.653393 10.065045 16.685547 10.273497 16.685547 10.482422 C 16.561692 9.6682851 16.138911 8.9351499 15.705078 8.2480469 C 15.293616 7.5853105 14.728435 7.0419164 14.167969 6.5078125 C 14.064107 6.4518755 13.903855 6.1579574 13.835938 6.2578125 C 13.68812 6.7240021 13.460416 7.1697274 13.378906 7.6542969 C 13.346024 8.1336695 13.782953 8.4473759 14.058594 8.7773438 C 14.649821 9.4368825 15.164158 10.215121 15.318359 11.101562 C 14.962819 10.278239 14.41913 9.5486538 13.820312 8.8867188 C 13.604578 8.690977 13.38368 8.3900503 13.0625 8.4160156 C 12.492846 8.6117574 12.141576 9.1441541 11.728516 9.5488281 C 11.532774 9.6766517 11.881101 9.7478012 11.957031 9.8476562 C 12.817509 10.403334 13.608875 11.105433 14.142578 11.988281 C 14.250446 12.164067 14.362468 12.485627 14.125 12.605469 C 13.654018 12.741305 13.188534 12.71015 12.701172 12.746094 C 11.40846 12.775952 10.119642 12.602302 8.8632812 12.304688 C 8.2161242 12.188845 7.5670333 11.993454 6.9042969 12.025391 C 6.6046937 12.058273 6.3035246 12.233366 6.1445312 12.490234 C 6.0646321 12.769882 6.4126697 12.880865 6.6171875 12.951172 C 7.9362653 13.357841 9.2829121 13.679527 10.642578 13.916016 C 12.275644 14.15972 13.997849 14.126831 15.550781 13.515625 C 16.994897 12.972333 18.119275 11.5664 18.148438 9.9980469 C 18.196361 8.5619209 17.608181 7.1954351 16.921875 5.9648438 C 16.422528 5.1051638 15.884903 4.2571899 15.226562 3.5097656 C 15.142658 3.4258601 15.045892 3.3066406 14.914062 3.3066406 L 14.912109 3.3046875 z " transform="scale(0.26458333)"/>
    <path id="path836-24-1" style="fill:#bebebe;fill-opacity:1;stroke-width:0.208363" d="M 0 61.181641 L 0 63.763672 C 0.47663675 63.742011 0.95519368 63.746268 1.4316406 63.814453 C 1.5075335 63.825792 1.7835323 63.896963 1.5917969 63.964844 C 1.0748969 64.255457 0.48617025 64.435499 0 64.777344 L 0 65.326172 C 0.018092965 65.325057 0.036622085 65.323914 0.0546875 65.318359 C 0.34631585 65.246473 0.62883584 65.143003 0.93164062 65.123047 C 1.8536371 65.015179 2.8037677 64.955719 3.7441406 65.015625 C 3.7067233 65.083543 3.5003458 65.180029 3.3964844 65.251953 C 2.8164399 65.607493 2.1387744 65.811416 1.6230469 66.265625 C 1.471261 66.40543 1.6141871 66.629693 1.8066406 66.59375 C 2.4178431 66.549794 2.9281261 66.155001 3.5273438 66.052734 C 3.9979295 65.952879 4.5016242 65.860458 4.9746094 65.988281 C 5.1823322 66.072187 5.0097523 66.319889 4.9394531 66.445312 C 4.4596799 67.147197 3.8345719 67.733831 3.2265625 68.322266 C 2.6305427 68.894316 1.9386474 69.39916 1.1289062 69.613281 C 0.817322 69.701155 0.50069176 69.858109 0.16992188 69.826172 C -0.0098324557 69.698348 0.04544658 69.424616 0.021484375 69.230469 C 0.028039239 68.961051 0.020842499 68.689597 0 68.419922 L 0 70.644531 C 0.44363556 70.611597 0.8841109 70.558175 1.3066406 70.408203 C 1.9362192 70.228449 2.5287476 69.927353 3.0292969 69.503906 C 3.9169384 68.783249 4.7484439 67.980856 5.4355469 67.064453 C 5.6153012 66.844749 5.7161925 66.579484 5.8320312 66.324219 C 5.8919368 66.132483 6.0351351 66.277184 6.1230469 66.363281 C 6.8069562 67.031211 7.3545193 67.827509 7.8378906 68.648438 C 8.631255 70.021842 8.7304963 71.688733 8.4296875 73.226562 C 8.3058324 73.829378 8.1111627 74.430698 7.8359375 74.949219 C 7.2818588 75.965893 6.5010061 76.888177 5.5039062 77.492188 C 5.1963283 77.671942 4.8275726 77.795888 4.4648438 77.839844 C 4.7244973 77.540241 5.0425815 77.286113 5.2539062 76.943359 C 5.6254338 76.427635 5.8695599 75.840476 6.1679688 75.283203 C 5.367015 75.303613 4.5590324 75.229861 3.7636719 75.345703 C 3.4600624 75.382742 3.1666256 75.513237 2.9804688 75.761719 C 2.8885884 75.841618 2.7722926 75.93005 2.6484375 75.914062 C 2.668091 75.694359 2.9240951 75.458717 2.7363281 75.242188 C 2.4726683 75.010502 2.0830342 75.038621 1.7558594 74.970703 C 1.3112395 74.926747 0.82175325 74.83134 0.40429688 75.039062 C 0.30043546 75.106981 0.22336444 75.219616 0.10351562 75.267578 C 0.09815755 75.097664 0.10091104 74.909561 0 74.769531 L 0 83.126953 C 1.9107438 82.147224 3.7984732 81.1176 5.59375 79.9375 C 7.6079207 78.56769 9.5233562 77.047733 11.292969 75.373047 C 11.809494 74.877691 12.299434 74.355837 12.800781 73.845703 C 12.680932 72.688015 12.603987 71.516623 12.265625 70.396484 C 11.683188 68.379517 10.673695 66.461707 9.2167969 64.939453 C 8.2492567 63.963126 7.0728581 63.213921 5.8476562 62.603516 C 4.0299157 61.717167 2.0212309 61.232148 0 61.181641 z M 14.197266 61.236328 C 14.180008 61.235705 14.162508 61.236738 14.144531 61.240234 L 14.142578 61.240234 C 13.819013 61.332115 13.678922 61.68809 13.501953 61.943359 C 12.840415 63.129409 12.200608 64.334508 11.697266 65.597656 C 11.641329 65.801411 11.481451 66.048707 11.613281 66.248047 C 11.809023 66.383883 12.082892 66.285396 12.308594 66.289062 C 13.757506 66.13327 15.199577 65.904101 16.626953 65.613281 C 16.850663 65.533382 17.169664 65.553888 17.304688 65.326172 C 17.408549 65.102462 17.168136 64.942244 16.984375 64.886719 C 16.548142 64.655034 16.129634 64.391275 15.708984 64.132812 C 16.545095 63.730935 17.415673 63.303131 18.365234 63.302734 C 18.704787 63.295175 19.148088 63.366141 19.251953 63.748047 C 19.427739 64.360448 19.195742 64.994976 19 65.574219 C 18.379609 67.165343 17.450313 68.59204 16.466797 69.980469 C 14.518137 72.680945 12.254044 75.152374 9.7890625 77.380859 C 7.061419 79.844843 3.9775349 81.897568 0.70117188 83.556641 C 0.46848109 83.674391 0.23434578 83.789001 0 83.904297 L 0 88.066406 C 2.6284079 87.962571 5.2257635 87.07199 7.3261719 85.480469 C 9.7370229 83.682415 11.451762 81.017135 12.195312 78.111328 C 12.34313 77.48774 12.530862 76.88433 12.917969 76.357422 C 13.609868 75.40187 14.455966 74.556273 15.208984 73.638672 C 16.830466 71.697605 18.380101 69.67038 19.554688 67.421875 C 20.060827 66.406403 20.543017 65.329786 20.59375 64.179688 C 20.637706 63.476204 20.336675 62.722416 19.705078 62.363281 C 18.858986 61.868329 17.809825 61.976397 16.908203 62.248047 C 16.185943 62.45577 15.532671 62.857926 14.851562 63.152344 C 14.691764 62.592274 14.688446 61.991309 14.46875 61.449219 C 14.419805 61.340846 14.318072 61.240691 14.197266 61.236328 z M 14.912109 78.304688 C 14.70038 78.336436 14.681299 78.617056 14.609375 78.78125 C 14.453583 79.342517 14.280284 79.909347 14.236328 80.492188 C 14.222344 81.037475 14.713622 81.387544 15.015625 81.773438 C 15.751465 82.675463 16.312249 83.7332 16.605469 84.861328 C 16.653393 85.065045 16.685547 85.273497 16.685547 85.482422 C 16.561692 84.668285 16.138911 83.93515 15.705078 83.248047 C 15.293616 82.58531 14.728435 82.041916 14.167969 81.507812 C 14.064107 81.451875 13.903856 81.157957 13.835938 81.257812 C 13.68812 81.724002 13.460416 82.169727 13.378906 82.654297 C 13.346024 83.133669 13.782953 83.447376 14.058594 83.777344 C 14.649821 84.436883 15.164158 85.21512 15.318359 86.101562 C 14.962819 85.278238 14.41913 84.548654 13.820312 83.886719 C 13.604577 83.690977 13.38368 83.39005 13.0625 83.416016 C 12.492846 83.611757 12.141576 84.144154 11.728516 84.548828 C 11.532774 84.676652 11.881101 84.747801 11.957031 84.847656 C 12.817509 85.403334 13.608875 86.105433 14.142578 86.988281 C 14.250446 87.164067 14.362468 87.485627 14.125 87.605469 C 13.654018 87.741305 13.188534 87.71015 12.701172 87.746094 C 11.40846 87.775952 10.119642 87.602303 8.8632812 87.304688 C 8.2161241 87.188845 7.5670333 86.993454 6.9042969 87.025391 C 6.6046937 87.058273 6.3035246 87.233366 6.1445312 87.490234 C 6.064632 87.769882 6.4126697 87.880865 6.6171875 87.951172 C 7.9362653 88.357841 9.282912 88.679527 10.642578 88.916016 C 12.275644 89.15972 13.997849 89.126831 15.550781 88.515625 C 16.994897 87.972333 18.119275 86.5664 18.148438 84.998047 C 18.196362 83.561921 17.608181 82.195435 16.921875 80.964844 C 16.422528 80.105164 15.884903 79.25719 15.226562 78.509766 C 15.142657 78.42586 15.045892 78.306641 14.914062 78.306641 L 14.912109 78.304688 z " transform="scale(0.26458333)"/>
    <path id="path836-24-0" style="fill:#bebebe;fill-opacity:1;stroke-width:0.208363" d="M 0 136.18164 L 0 138.76172 C 0.47636266 138.7401 0.95546939 138.74631 1.4316406 138.81445 C 1.5075335 138.82579 1.7835323 138.89696 1.5917969 138.96484 C 1.0748969 139.25546 0.4861705 139.4355 0 139.77734 L 0 140.32812 C 0.01788302 140.32698 0.036834404 140.32385 0.0546875 140.31836 C 0.34631585 140.24647 0.62883623 140.143 0.93164062 140.12305 C 1.8536376 140.01518 2.8037677 139.95573 3.7441406 140.01562 C 3.7067233 140.08354 3.5003458 140.18003 3.3964844 140.25195 C 2.8164403 140.60749 2.1387747 140.81143 1.6230469 141.26562 C 1.471261 141.40543 1.6141871 141.62969 1.8066406 141.59375 C 2.4178431 141.54979 2.9281261 141.155 3.5273438 141.05273 C 3.997929 140.95288 4.5016242 140.86046 4.9746094 140.98828 C 5.1823322 141.07219 5.0097523 141.31989 4.9394531 141.44531 C 4.4596799 142.1472 3.8345715 142.73383 3.2265625 143.32227 C 2.6305423 143.89432 1.9386474 144.39916 1.1289062 144.61328 C 0.81732205 144.70116 0.50069175 144.85811 0.16992188 144.82617 C -0.0098324584 144.69835 0.04544658 144.42462 0.021484375 144.23047 C 0.028039239 143.96105 0.020842499 143.6896 0 143.41992 L 0 145.64844 C 0.44394144 145.61551 0.88382324 145.55828 1.3066406 145.4082 C 1.9362192 145.22845 2.5287476 144.92735 3.0292969 144.50391 C 3.916938 143.78325 4.7484439 142.98086 5.4355469 142.06445 C 5.6153012 141.84475 5.7161926 141.57948 5.8320312 141.32422 C 5.8919368 141.13248 6.0351351 141.27718 6.1230469 141.36328 C 6.8069562 142.03121 7.3545193 142.82751 7.8378906 143.64844 C 8.631255 145.02184 8.7304963 146.68873 8.4296875 148.22656 C 8.3058324 148.82938 8.1111627 149.4307 7.8359375 149.94922 C 7.8266158 149.96632 7.8160907 149.98295 7.8066406 150 L 11.673828 150 C 12.053718 149.61972 12.424125 149.22897 12.800781 148.8457 C 12.680932 147.68801 12.603987 146.51662 12.265625 145.39648 C 11.683188 143.37952 10.673695 141.46171 9.2167969 139.93945 C 8.2492567 138.96313 7.0728581 138.21392 5.8476562 137.60352 C 4.0299158 136.71717 2.0212309 136.23215 0 136.18164 z M 14.197266 136.23633 C 14.180008 136.2357 14.162508 136.23674 14.144531 136.24023 L 14.142578 136.24023 C 13.819013 136.33211 13.678922 136.68809 13.501953 136.94336 C 12.840415 138.12941 12.200608 139.33451 11.697266 140.59766 C 11.641329 140.80141 11.481451 141.04871 11.613281 141.24805 C 11.809023 141.38388 12.082892 141.2854 12.308594 141.28906 C 13.757506 141.13327 15.199577 140.9041 16.626953 140.61328 C 16.850663 140.53338 17.169664 140.55389 17.304688 140.32617 C 17.408548 140.10246 17.168136 139.94224 16.984375 139.88672 C 16.548142 139.65503 16.129634 139.39128 15.708984 139.13281 C 16.545095 138.73094 17.415673 138.30313 18.365234 138.30273 C 18.704787 138.29518 19.148088 138.36614 19.251953 138.74805 C 19.427739 139.36045 19.195742 139.99498 19 140.57422 C 18.379609 142.16534 17.450313 143.59204 16.466797 144.98047 C 15.186911 146.75415 13.76958 148.42787 12.25 150 L 14.027344 150 C 14.423879 149.54914 14.828077 149.10283 15.208984 148.63867 C 16.830466 146.6976 18.380101 144.67037 19.554688 142.42188 C 20.060826 141.4064 20.543017 140.32979 20.59375 139.17969 C 20.637706 138.4762 20.336675 137.72242 19.705078 137.36328 C 18.858986 136.86833 17.809825 136.9764 16.908203 137.24805 C 16.185943 137.45577 15.532671 137.85793 14.851562 138.15234 C 14.691765 137.59227 14.688446 136.99131 14.46875 136.44922 C 14.419805 136.34085 14.318072 136.24069 14.197266 136.23633 z M 0 149.76953 L 0 150 L 0.0859375 150 C 0.073005645 149.91709 0.048908217 149.8374 0 149.76953 z M 1.0703125 149.91016 C 0.87302629 149.90726 0.67722997 149.92873 0.49414062 150 L 1.9375 150 C 1.8756828 149.99192 1.8147298 149.98292 1.7558594 149.9707 C 1.5335494 149.94873 1.3004436 149.91354 1.0703125 149.91016 z " transform="scale(0.26458333)"/>
    <path id="path836-24-5" style="fill:#bebebe;fill-opacity:1;stroke-width:0.0551293" d="m 6.0995077,26.047616 c -0.0687,0.02008 -0.05073,0.107069 -0.05919,0.161925 -0.01797,0.13825 -0.05813,0.27206 -0.09513,0.405976 -0.281783,-0.135713 -0.572657,-0.295947 -0.894922,-0.288971 -0.176934,-7.72e-4 -0.343722,0.07927 -0.474573,0.194479 -0.108549,0.08561 -0.101467,0.23623 -0.102524,0.361056 -0.0078,0.217627 0.02959,0.436733 0.120598,0.635335 0.164462,0.378706 0.393821,0.724859 0.625506,1.065177 0.241408,0.352917 0.510085,0.685751 0.787747,1.010447 0.04439,0.05391 0.08984,0.106964 0.13455,0.160446 0.0069,-0.135079 0.03699,-0.270263 0.02431,-0.405659 -0.03171,-0.177674 -0.1726,-0.305142 -0.278084,-0.441912 -0.343933,-0.419928 -0.648019,-0.874418 -0.892069,-1.359676 -0.111086,-0.227139 -0.214562,-0.472458 -0.201033,-0.730355 8.35e-4,-0.07822 0.07187,-0.132331 0.145331,-0.13751 0.188878,-0.03594 0.373845,0.03805 0.549616,0.09724 0.07293,0.02854 0.143535,0.05391 0.210651,0.09724 -0.125883,0.113834 -0.287491,0.184438 -0.403016,0.309581 -0.03488,0.04651 0.02325,0.08139 0.06447,0.08667 0.314866,0.0761 0.637237,0.116053 0.9576,0.161185 0.143429,0.0148 0.287597,0.04228 0.432083,0.03488 0.0687,-0.0079 0.104638,-0.0835 0.07927,-0.144803 -0.05919,-0.18687 -0.162348,-0.355982 -0.248807,-0.531014 -0.122395,-0.227245 -0.233903,-0.462206 -0.381137,-0.674759 -0.02537,-0.03065 -0.05602,-0.07504 -0.102525,-0.06765 z m 3.6613622,0.0613 c -0.5915772,0.01023 -1.1786102,0.168373 -1.6965592,0.453856 -0.18687,0.103582 -0.378284,0.206423 -0.53873,0.349323 -0.03805,0.02748 -0.06025,0.100411 -0.0032,0.117745 0.135079,-9.51e-4 0.262019,-0.06025 0.392553,-0.08878 0.248384,-0.05813 0.507549,-0.04333 0.748852,0.01374 0.154315,0.03699 0.315923,0.09724 0.4547009,0.17482 0.2038873,0.114046 0.3991063,0.273223 0.4827113,0.49846 0.114468,0.279247 0.137404,0.586821 0.112037,0.885199 0.0091,0.03382 -0.0296,0.116476 0.01691,0.112671 0.18074,-0.01163 0.3649671,-0.01374 0.5376731,-0.07504 0.166576,-0.04756 0.322899,-0.12768 0.455336,-0.239717 0.234855,-0.190674 0.455335,-0.402911 0.637131,-0.645376 0.04756,-0.05813 0.07399,-0.128103 0.104639,-0.195642 0.01585,-0.05073 0.0539,-0.01268 0.07716,0.0101 0.180951,0.176723 0.325753,0.387797 0.453645,0.605001 0.209911,0.36338 0.236335,0.804025 0.156746,1.210909 -0.03277,0.159495 -0.08456,0.318778 -0.15738,0.45597 -0.1466,0.268995 -0.353023,0.512939 -0.616839,0.67275 -0.08138,0.04756 -0.179153,0.08033 -0.275125,0.09196 0.0687,-0.07927 0.15273,-0.146176 0.208643,-0.236863 0.0983,-0.136452 0.163194,-0.292247 0.242148,-0.439692 -0.211919,0.0054 -0.425741,-0.01374 -0.63618,0.01691 -0.08033,0.0098 -0.158121,0.04439 -0.207375,0.110134 -0.02431,0.02114 -0.05496,0.04439 -0.08773,0.04016 0.0052,-0.05813 0.07293,-0.120387 0.02325,-0.177677 -0.06976,-0.0613 -0.173023,-0.0539 -0.259588,-0.07187 -0.117639,-0.01163 -0.247221,-0.03699 -0.357673,0.01797 -0.02748,0.01797 -0.04756,0.04756 -0.07927,0.06025 -0.0017,-0.05391 2.32e-4,-0.114996 -0.04651,-0.152413 -0.10781,-0.09196 -0.263816,-0.111403 -0.399846,-0.08878 -0.07293,0.0069 -0.127363,0.05813 -0.186447,0.09407 -0.1014671,0.05073 -0.248172,0.05179 -0.3179311,-0.05179 -0.1367699,-0.187184 -0.2088539,-0.414535 -0.3561939,-0.59538 -0.122818,-0.166681 -0.311695,-0.283475 -0.518541,-0.307362 -0.400163,-0.05707 -0.802017,0.09935 -1.11719,0.338331 -0.0983,0.07716 -0.192365,0.158755 -0.288548,0.238237 0.230838,0.230839 0.47658,0.447515 0.692304,0.692835 0.139413,0.16277 0.26741,0.347419 0.279988,0.56864 0.0082,0.129899 -0.0148,0.263604 -0.08773,0.373422 -0.09935,0.158331 -0.212447,0.316029 -0.366551,0.425106 -0.06025,0.03699 -0.119436,-0.02854 -0.162665,-0.06447 -0.186658,-0.19078 -0.312013,-0.433351 -0.409676,-0.67941 -0.04651,-0.107703 -0.0613,-0.229147 -0.122289,-0.330298 -0.03382,-0.04651 -0.09724,-0.01268 -0.107281,0.03488 -0.05179,0.138249 -0.01691,0.290134 0.0092,0.43018 0.08456,0.375641 0.248384,0.733526 0.485882,1.036977 0.265189,0.348267 0.582064,0.662922 0.955486,0.894078 0.09195,0.05708 0.199658,0.01374 0.289922,-0.02325 0.08033,-0.03065 0.160129,-0.0613 0.240246,-0.0909 -0.189089,-0.09195 -0.387691,-0.173975 -0.545071,-0.317932 -0.05496,-0.05073 -0.118379,-0.101468 -0.146283,-0.171967 0.05391,-0.03594 0.125989,-0.01163 0.187081,-0.02959 0.318883,-0.05285 0.614936,-0.204521 0.872516,-0.396041 0.143005,-0.106964 0.267832,-0.238766 0.357461,-0.393822 0.02537,-0.03911 0.05391,-0.0761 0.0835,-0.111402 0.02431,0.186553 0.02114,0.385683 -0.0148,0.574983 -0.03171,0.16034 -0.10041,0.3229 -0.161819,0.478166 -0.01374,0.05813 0.06025,0.07187 0.101467,0.05391 0.229782,-0.07187 0.443709,-0.186553 0.660068,-0.290875 0.5441201,-0.276393 1.0822471,-0.567055 1.5926071,-0.902533 0.532916,-0.362429 1.039831,-0.764495 1.508041,-1.207589 0.136664,-0.131063 0.266246,-0.269101 0.398894,-0.404074 -0.03171,-0.306305 -0.05179,-0.616204 -0.141315,-0.912574 -0.154103,-0.533656 -0.421618,-1.041205 -0.807089,-1.443968 -0.255995,-0.25832 -0.56695,-0.456181 -0.891118,-0.617684 -0.5289,-0.257897 -1.118786,-0.388219 -1.7071291,-0.377438 z m 3.9026641,0.01585 c -0.08561,0.02431 -0.122289,0.118696 -0.169112,0.186236 -0.175032,0.313809 -0.344462,0.632587 -0.477638,0.966795 -0.0148,0.05391 -0.05708,0.119542 -0.0222,0.172284 0.05179,0.03594 0.124404,0.0096 0.184121,0.01057 0.383358,-0.04122 0.764918,-0.101467 1.142578,-0.178413 0.05919,-0.02114 0.143323,-0.01585 0.179048,-0.0761 0.02748,-0.05919 -0.03594,-0.101468 -0.08456,-0.116159 -0.11542,-0.0613 -0.226083,-0.131168 -0.33738,-0.199553 0.221221,-0.10633 0.451425,-0.219847 0.702663,-0.219952 0.08984,-0.002 0.207057,0.01691 0.234538,0.117956 0.04651,0.162031 -0.0148,0.329875 -0.06659,0.483133 -0.164145,0.420985 -0.409992,0.79874 -0.670214,1.166095 -0.515583,0.714501 -1.114611,1.368333 -1.766804,1.957953 -0.721689,0.651929 -1.537794,1.194834 -2.404665,1.633797 -0.5777311,0.292354 -1.1750163,0.557649 -1.7867073,0.767137 -0.501102,0.167316 -1.017529,0.306305 -1.548046,0.338542 -0.179682,0.0087 -0.365812,0.0038 -0.5456,-0.01903 -0.04439,-0.0041 -0.09618,-0.02642 -0.09301,-0.07927 0.0075,-0.111932 0.08667,-0.203358 0.152519,-0.288971 0.117744,-0.14586 0.268149,-0.261491 0.433245,-0.349112 0.03911,-0.02431 0.103582,-0.04334 0.04439,-0.08667 -0.102524,-0.134234 -0.204732,-0.268255 -0.306833,-0.402594 -0.166682,0.163828 -0.344356,0.320151 -0.47267,0.517802 -0.04862,0.06976 -0.09407,0.1429 -0.133176,0.218895 0.07821,-0.2264 0.201138,-0.441701 0.372576,-0.610391 0.06659,-0.05602 0.136453,-0.108232 0.204309,-0.162771 -0.07822,-0.164779 -0.157063,-0.329347 -0.235595,-0.49402 -0.25314,0.295418 -0.52964,0.588089 -0.668946,0.95834 -0.03805,0.08773 -0.03488,0.184967 -0.05919,0.276076 0.0092,-0.216041 0.07821,-0.426375 0.164884,-0.622968 0.09195,-0.179894 0.209066,-0.343722 0.348795,-0.487256 0.06342,-0.0613 0.127257,-0.123241 0.19078,-0.184967 -0.05602,-0.197545 -0.08561,-0.404496 -0.17186,-0.592 -0.01691,-0.04651 -0.07293,-0.111509 -0.122501,-0.06447 -0.130111,0.146282 -0.233059,0.314761 -0.342031,0.476897 -0.205471,0.327339 -0.376909,0.684484 -0.445717,1.067175 -0.03065,0.156535 -0.0099,0.31846 0.04756,0.466434 0.12155,0.348477 0.424473,0.613773 0.771682,0.72581 0.335371,0.114574 0.697589,0.08984 1.044164,0.05391 0.491061,-0.05602 0.971658,-0.180211 1.439667,-0.33664 0.122606,-0.04228 0.261596,-0.04862 0.39139,-0.01903 0.265718,0.05708 0.5332332,0.112777 0.8057162,0.123875 0.8062441,0.04651 1.6285011,-0.193106 2.2733701,-0.681736 0.637871,-0.475735 1.0914,-1.180966 1.288131,-1.949794 0.03911,-0.164991 0.08878,-0.324485 0.191202,-0.463896 0.183065,-0.252823 0.406822,-0.476475 0.606058,-0.719257 0.429017,-0.513574 0.839221,-1.050084 1.149997,-1.645001 0.133916,-0.268677 0.261174,-0.553526 0.274597,-0.857823 0.01163,-0.18613 -0.06764,-0.385471 -0.23475,-0.480492 -0.223862,-0.130956 -0.50163,-0.102524 -0.740184,-0.03065 -0.191098,0.05496 -0.363804,0.161502 -0.544014,0.2394 -0.04228,-0.148185 -0.04334,-0.307257 -0.101468,-0.450685 -0.0148,-0.03277 -0.04756,-0.06236 -0.08561,-0.05496 z m -4.0995961,0.438108 c 0.05073,9.51e-4 0.101468,0.002 0.151884,0.01028 -0.105695,0.08878 -0.24088,0.132965 -0.349217,0.217098 -0.02431,0.02854 -0.02008,0.06976 0.02325,0.07187 0.09724,-0.02114 0.195113,-0.04545 0.295313,-0.05285 0.20378,-0.01902 0.4102031,-0.03276 0.6153581,-0.0034 0.02008,0.003 0.09301,0.0222 0.04228,0.04016 -0.157909,0.08878 -0.340973,0.138039 -0.4785881,0.259905 -0.04545,0.04756 0.01585,0.115525 0.07187,0.0983 0.07716,-0.01902 0.1522021,-0.04651 0.2323191,-0.05179 0.243945,-0.02854 0.495077,-0.04439 0.743884,-0.02854 -0.0099,0.01797 -0.06447,0.04333 -0.09195,0.06236 -0.15347,0.09407 -0.332729,0.14829 -0.469182,0.268466 -0.04016,0.03699 -0.0023,0.09618 0.04862,0.08667 0.161714,-0.01163 0.297004,-0.116159 0.455547,-0.143217 0.124509,-0.02642 0.257685,-0.05073 0.382829,-0.01691 0.05496,0.0222 0.0092,0.08773 -0.0094,0.120915 -0.12694,0.185707 -0.292565,0.341079 -0.453434,0.496769 -0.157697,0.151355 -0.340339,0.284954 -0.554583,0.341607 -0.08244,0.02325 -0.16647,0.06447 -0.2539861,0.05602 -0.04756,-0.03382 -0.03277,-0.106224 -0.03911,-0.157592 0.0062,-0.254832 -0.02854,-0.514948 -0.142689,-0.745681 -0.177357,-0.37839 -0.5412662,-0.65436 -0.9469252,-0.744835 -0.13529,-0.03488 -0.275759,-0.03699 -0.412952,-0.06025 0.263076,-0.06659 0.5449649,-0.09301 0.8189279,-0.114045 0.1062243,-0.0074 0.2109683,-0.01163 0.3196233,-0.01163 z m 4.3034401,4.077124 c -0.05602,0.0084 -0.0613,0.08244 -0.08033,0.125883 -0.04122,0.148502 -0.08667,0.298484 -0.0983,0.452694 -0.0037,0.144274 0.126095,0.237286 0.206,0.339387 0.194691,0.238661 0.342876,0.518542 0.420457,0.817026 0.01268,0.0539 0.02114,0.108655 0.02114,0.163933 -0.03277,-0.215407 -0.144592,-0.409358 -0.259377,-0.591154 -0.108866,-0.175349 -0.258214,-0.318777 -0.406504,-0.460092 -0.02748,-0.0148 -0.06976,-0.09301 -0.08773,-0.06659 -0.03911,0.123346 -0.09935,0.241302 -0.120916,0.369511 -0.0087,0.126834 0.106541,0.210017 0.179471,0.297321 0.156429,0.174503 0.292987,0.380715 0.333786,0.615253 -0.09407,-0.217838 -0.238238,-0.411155 -0.396675,-0.586292 -0.05708,-0.05179 -0.115314,-0.131274 -0.200293,-0.124404 -0.150721,0.05179 -0.243628,0.192471 -0.352917,0.299541 -0.05179,0.03382 0.04016,0.05285 0.06025,0.07927 0.227668,0.147023 0.437367,0.332729 0.578576,0.566316 0.02854,0.04651 0.05813,0.131697 -0.0047,0.163405 -0.124614,0.03594 -0.24775,0.02748 -0.376698,0.03699 -0.34203,0.0079 -0.683426,-0.03805 -1.015838,-0.116794 -0.171227,-0.03065 -0.342559,-0.08244 -0.517908,-0.07399 -0.07927,0.0087 -0.158965,0.05496 -0.201032,0.122923 -0.02114,0.07399 0.07082,0.103582 0.124932,0.122184 0.349006,0.107598 0.705411,0.192683 1.065156,0.255254 0.432082,0.06448 0.887735,0.05602 1.298615,-0.105695 0.382089,-0.143746 0.67941,-0.516216 0.687126,-0.931176 0.01268,-0.379975 -0.143006,-0.741348 -0.324591,-1.066942 -0.132119,-0.227457 -0.27449,-0.451531 -0.448676,-0.649287 -0.0222,-0.0222 -0.04756,-0.05391 -0.08244,-0.05391 z"/>
    <path id="path836-24-52" style="fill:#bebebe;fill-opacity:1;stroke-width:0.208363" d="M 60.611328 135.94336 C 60.591152 135.94122 60.570799 135.94182 60.548828 135.94531 L 60.552734 135.94727 C 60.293081 136.02316 60.362053 136.35322 60.330078 136.56055 C 60.26216 137.08307 60.110546 137.58761 59.970703 138.09375 C 58.905697 137.58082 57.8059 136.97559 56.587891 137.00195 C 55.919164 136.99904 55.289477 137.30089 54.794922 137.73633 C 54.384658 138.05989 54.410245 138.62978 54.40625 139.10156 C 54.37677 139.92409 54.517361 140.75133 54.861328 141.50195 C 55.482917 142.93328 56.350903 144.24306 57.226562 145.5293 C 58.138971 146.86316 59.153694 148.12046 60.203125 149.34766 C 60.370898 149.55141 60.543908 149.75294 60.712891 149.95508 C 60.738969 149.44454 60.852612 148.93361 60.804688 148.42188 C 60.684839 147.75035 60.152586 147.26693 59.753906 146.75 C 58.454002 145.16287 57.303253 143.44537 56.380859 141.61133 C 55.961007 140.75285 55.569961 139.82629 55.621094 138.85156 C 55.62425 138.55593 55.894227 138.35161 56.171875 138.33203 C 56.885745 138.1962 57.583716 138.47551 58.248047 138.69922 C 58.523688 138.80709 58.791255 138.90264 59.044922 139.06641 C 58.569144 139.49664 57.958114 139.76335 57.521484 140.23633 C 57.389654 140.41211 57.609833 140.5445 57.765625 140.56445 C 58.95567 140.85208 60.173945 141.00325 61.384766 141.17383 C 61.926859 141.22977 62.471489 141.33266 63.017578 141.30469 C 63.277232 141.27483 63.412285 140.98951 63.316406 140.75781 C 63.092696 140.05153 62.703727 139.41349 62.376953 138.75195 C 61.914358 137.89307 61.492022 137.00452 60.935547 136.20117 C 60.851646 136.09981 60.752562 135.95834 60.611328 135.94336 z M 74.8125 136.17578 C 74.673533 136.17417 74.535463 136.17519 74.396484 136.17773 L 74.390625 136.17969 C 72.154743 136.21835 69.936118 136.81554 67.978516 137.89453 C 67.272235 138.28602 66.549769 138.67475 65.943359 139.21484 C 65.799548 139.31871 65.716019 139.59464 65.931641 139.66016 C 66.442175 139.65656 66.920706 139.43205 67.414062 139.32422 C 68.352837 139.10451 69.332129 139.16126 70.244141 139.37695 C 70.827378 139.51676 71.438375 139.74389 71.962891 140.03711 C 72.733487 140.46815 73.471122 141.07059 73.787109 141.92188 C 74.219744 142.9773 74.306813 144.13985 74.210938 145.26758 C 74.245331 145.3954 74.099605 145.70774 74.275391 145.69336 C 74.958502 145.6494 75.653894 145.63989 76.306641 145.4082 C 76.936219 145.22845 77.528748 144.92735 78.029297 144.50391 C 78.916938 143.78325 79.748444 142.98086 80.435547 142.06445 C 80.615301 141.84475 80.716193 141.57948 80.832031 141.32422 C 80.891937 141.13248 81.035135 141.27718 81.123047 141.36328 C 81.806956 142.03121 82.354519 142.82751 82.837891 143.64844 C 83.631255 145.02184 83.730496 146.68873 83.429688 148.22656 C 83.305832 148.82938 83.111163 149.4307 82.835938 149.94922 C 82.826621 149.96631 82.816085 149.98296 82.806641 150 L 86.671875 150 C 87.052396 149.61914 87.423482 149.22962 87.800781 148.8457 C 87.680932 147.68801 87.603987 146.51662 87.265625 145.39648 C 86.683188 143.37952 85.673695 141.46171 84.216797 139.93945 C 83.249257 138.96313 82.072858 138.21392 80.847656 137.60352 C 78.973601 136.68971 76.896998 136.19989 74.8125 136.17578 z M 89.197266 136.23633 C 89.180008 136.2357 89.162508 136.23674 89.144531 136.24023 L 89.142578 136.24023 C 88.819013 136.33211 88.678922 136.68809 88.501953 136.94336 C 87.840415 138.12941 87.200608 139.33451 86.697266 140.59766 C 86.641329 140.80141 86.481451 141.04871 86.613281 141.24805 C 86.809023 141.38388 87.082892 141.2854 87.308594 141.28906 C 88.757506 141.13327 90.199577 140.9041 91.626953 140.61328 C 91.850663 140.53338 92.169664 140.55389 92.304688 140.32617 C 92.408549 140.10246 92.168136 139.94224 91.984375 139.88672 C 91.548142 139.65503 91.129634 139.39128 90.708984 139.13281 C 91.545095 138.73094 92.415673 138.30313 93.365234 138.30273 C 93.704787 138.29518 94.148088 138.36614 94.251953 138.74805 C 94.427739 139.36045 94.195742 139.99498 94 140.57422 C 93.379609 142.16534 92.450313 143.59204 91.466797 144.98047 C 90.187046 146.75396 88.771337 148.42809 87.251953 150 L 89.027344 150 C 89.423778 149.54921 89.828077 149.10283 90.208984 148.63867 C 91.830466 146.6976 93.380101 144.67038 94.554688 142.42188 C 95.060827 141.4064 95.543017 140.32979 95.59375 139.17969 C 95.637706 138.4762 95.336675 137.72242 94.705078 137.36328 C 93.858986 136.86833 92.809825 136.9764 91.908203 137.24805 C 91.185943 137.45577 90.532671 137.85793 89.851562 138.15234 C 89.691764 137.59227 89.688446 136.99131 89.46875 136.44922 C 89.419805 136.34085 89.318072 136.24069 89.197266 136.23633 z M 73.646484 137.89453 C 73.83822 137.89813 74.030154 137.9023 74.220703 137.93359 C 73.821226 138.26914 73.309853 138.43592 72.900391 138.75391 C 72.80851 138.86177 72.824514 139.01742 72.988281 139.02539 C 73.355803 138.94549 73.72676 138.85414 74.105469 138.82617 C 74.875661 138.75429 75.656252 138.70349 76.431641 138.81445 C 76.507534 138.82579 76.783532 138.89696 76.591797 138.96484 C 75.994975 139.30039 75.30137 139.48667 74.78125 139.94727 C 74.60947 140.12702 74.842958 140.38346 75.054688 140.31836 C 75.346316 140.24647 75.628836 140.143 75.931641 140.12305 C 76.853637 140.01518 77.803768 139.95572 78.744141 140.01562 C 78.706723 140.08354 78.500346 140.18003 78.396484 140.25195 C 77.81644 140.60749 77.138775 140.81142 76.623047 141.26562 C 76.471261 141.40543 76.614187 141.62969 76.806641 141.59375 C 77.417843 141.54979 77.928126 141.155 78.527344 141.05273 C 78.997929 140.95288 79.501624 140.86046 79.974609 140.98828 C 80.182332 141.07219 80.009752 141.31989 79.939453 141.44531 C 79.45968 142.1472 78.834571 142.73383 78.226562 143.32227 C 77.630542 143.89432 76.938647 144.39916 76.128906 144.61328 C 75.817322 144.70116 75.500691 144.85811 75.169922 144.82617 C 74.990168 144.69835 75.045447 144.42462 75.021484 144.23047 C 75.044917 143.26732 74.913851 142.28417 74.482422 141.41211 C 73.812096 139.98197 72.437496 138.93766 70.904297 138.5957 C 70.392965 138.46387 69.862275 138.45705 69.34375 138.36914 C 70.338053 138.11746 71.402049 138.017 72.4375 137.9375 C 72.838977 137.90953 73.23582 137.89453 73.646484 137.89453 z M 67.636719 146.05859 C 66.316513 146.0396 65.024726 146.59053 63.982422 147.38086 C 63.610894 147.67249 63.254151 147.98085 62.890625 148.28125 C 63.470419 148.86105 64.072625 149.42 64.652344 150 L 75.085938 150 C 75.06827 149.88238 75.028789 149.7723 74.927734 149.69141 C 74.520264 149.34384 73.930145 149.26996 73.416016 149.35547 C 73.140375 149.38155 72.9362 149.5751 72.712891 149.71094 C 72.329393 149.90267 71.773422 149.90711 71.509766 149.51562 C 70.99284 148.80816 70.720938 147.94718 70.164062 147.26367 C 69.699868 146.6337 68.986858 146.1938 68.205078 146.10352 C 68.016025 146.07655 67.82532 146.06131 67.636719 146.05859 z M 76.068359 149.91016 C 75.872983 149.90719 75.681509 149.93048 75.5 150 L 76.945312 150 C 76.881113 149.9917 76.816897 149.98337 76.755859 149.9707 C 76.533549 149.94873 76.298559 149.91365 76.068359 149.91016 z " transform="scale(0.26458333)"/>
    <path id="path836-24-6" style="fill:#bebebe;fill-opacity:1;stroke-width:0.0551293" d="m 25.943258,26.047616 c -0.0687,0.02008 -0.05073,0.107069 -0.05919,0.161925 -0.01797,0.13825 -0.05813,0.27206 -0.09513,0.405976 -0.281783,-0.135713 -0.572657,-0.295947 -0.894922,-0.288971 -0.176934,-7.72e-4 -0.343722,0.07927 -0.474573,0.194479 -0.108549,0.08561 -0.101467,0.23623 -0.102524,0.361056 -0.0078,0.217627 0.02959,0.436733 0.120598,0.635335 0.164462,0.378706 0.393821,0.724859 0.625506,1.065177 0.241408,0.352917 0.510085,0.685751 0.787747,1.010447 0.04439,0.05391 0.08984,0.106964 0.13455,0.160446 0.0069,-0.135079 0.03699,-0.270263 0.02431,-0.405659 -0.03171,-0.177674 -0.1726,-0.305142 -0.278084,-0.441912 -0.343933,-0.419928 -0.648019,-0.874418 -0.892069,-1.359676 -0.111086,-0.227139 -0.214562,-0.472458 -0.201033,-0.730355 8.35e-4,-0.07822 0.07187,-0.132331 0.145331,-0.13751 0.188878,-0.03594 0.373845,0.03805 0.549616,0.09724 0.07293,0.02854 0.143535,0.05391 0.210651,0.09724 -0.125883,0.113834 -0.287491,0.184438 -0.403016,0.309581 -0.03488,0.04651 0.02325,0.08139 0.06447,0.08667 0.314866,0.0761 0.637237,0.116053 0.9576,0.161185 0.143429,0.0148 0.287597,0.04228 0.432083,0.03488 0.0687,-0.0079 0.104638,-0.0835 0.07927,-0.144803 -0.05919,-0.18687 -0.162348,-0.355982 -0.248807,-0.531014 -0.122395,-0.227245 -0.233903,-0.462206 -0.381137,-0.674759 -0.02537,-0.03065 -0.05602,-0.07504 -0.102525,-0.06765 z m 3.661362,0.0613 c -0.591577,0.01023 -1.17861,0.168373 -1.696559,0.453856 -0.18687,0.103582 -0.378284,0.206423 -0.53873,0.349323 -0.03805,0.02748 -0.06025,0.100411 -0.0032,0.117745 0.135079,-9.51e-4 0.262019,-0.06025 0.392553,-0.08878 0.248384,-0.05813 0.507549,-0.04333 0.748852,0.01374 0.154315,0.03699 0.315923,0.09724 0.454701,0.17482 0.203887,0.114046 0.399106,0.273223 0.482711,0.49846 0.114468,0.279247 0.137404,0.586821 0.112037,0.885199 0.0091,0.03382 -0.0296,0.116476 0.01691,0.112671 0.18074,-0.01163 0.364967,-0.01374 0.537673,-0.07504 0.166576,-0.04756 0.322899,-0.12768 0.455336,-0.239717 0.234855,-0.190674 0.455335,-0.402911 0.637131,-0.645376 0.04756,-0.05813 0.07399,-0.128103 0.104639,-0.195642 0.01585,-0.05073 0.0539,-0.01268 0.07716,0.0101 0.180951,0.176723 0.325753,0.387797 0.453645,0.605001 0.209911,0.36338 0.236335,0.804025 0.156746,1.210909 -0.03277,0.159495 -0.08456,0.318778 -0.15738,0.45597 -0.1466,0.268995 -0.353023,0.512939 -0.616839,0.67275 -0.08138,0.04756 -0.179153,0.08033 -0.275125,0.09196 0.0687,-0.07927 0.15273,-0.146176 0.208643,-0.236863 0.0983,-0.136452 0.163194,-0.292247 0.242148,-0.439692 -0.211919,0.0054 -0.425741,-0.01374 -0.63618,0.01691 -0.08033,0.0098 -0.158121,0.04439 -0.207375,0.110134 -0.02431,0.02114 -0.05496,0.04439 -0.08773,0.04016 0.0052,-0.05813 0.07293,-0.120387 0.02325,-0.177677 -0.06976,-0.0613 -0.173023,-0.0539 -0.259588,-0.07187 -0.117639,-0.01163 -0.247221,-0.03699 -0.357673,0.01797 -0.02748,0.01797 -0.04756,0.04756 -0.07927,0.06025 -0.0017,-0.05391 2.32e-4,-0.114996 -0.04651,-0.152413 -0.10781,-0.09196 -0.263816,-0.111403 -0.399846,-0.08878 -0.07293,0.0069 -0.127363,0.05813 -0.186447,0.09407 -0.101467,0.05073 -0.248172,0.05179 -0.317931,-0.05179 -0.13677,-0.187184 -0.208854,-0.414535 -0.356194,-0.59538 -0.122818,-0.166681 -0.311695,-0.283475 -0.518541,-0.307362 -0.400163,-0.05707 -0.802017,0.09935 -1.11719,0.338331 -0.0983,0.07716 -0.192365,0.158755 -0.288548,0.238237 0.230838,0.230839 0.47658,0.447515 0.692304,0.692835 0.139413,0.16277 0.26741,0.347419 0.279988,0.56864 0.0082,0.129899 -0.0148,0.263604 -0.08773,0.373422 -0.09935,0.158331 -0.212447,0.316029 -0.366551,0.425106 -0.06025,0.03699 -0.119436,-0.02854 -0.162665,-0.06447 -0.186658,-0.19078 -0.312013,-0.433351 -0.409676,-0.67941 -0.04651,-0.107703 -0.0613,-0.229147 -0.122289,-0.330298 -0.03382,-0.04651 -0.09724,-0.01268 -0.107281,0.03488 -0.05179,0.138249 -0.01691,0.290134 0.0092,0.43018 0.08456,0.375641 0.248384,0.733526 0.485882,1.036977 0.265189,0.348267 0.582064,0.662922 0.955486,0.894078 0.09195,0.05708 0.199658,0.01374 0.289922,-0.02325 0.08033,-0.03065 0.160129,-0.0613 0.240246,-0.0909 -0.189089,-0.09195 -0.387691,-0.173975 -0.545071,-0.317932 -0.05496,-0.05073 -0.118379,-0.101468 -0.146283,-0.171967 0.05391,-0.03594 0.125989,-0.01163 0.187081,-0.02959 0.318883,-0.05285 0.614936,-0.204521 0.872516,-0.396041 0.143005,-0.106964 0.267832,-0.238766 0.357461,-0.393822 0.02537,-0.03911 0.05391,-0.0761 0.0835,-0.111402 0.02431,0.186553 0.02114,0.385683 -0.0148,0.574983 -0.03171,0.16034 -0.10041,0.3229 -0.161819,0.478166 -0.01374,0.05813 0.06025,0.07187 0.101467,0.05391 0.229782,-0.07187 0.443709,-0.186553 0.660068,-0.290875 0.54412,-0.276393 1.082247,-0.567055 1.592607,-0.902533 0.532916,-0.362429 1.039831,-0.764495 1.508041,-1.207589 0.136664,-0.131063 0.266246,-0.269101 0.398894,-0.404074 -0.03171,-0.306305 -0.05179,-0.616204 -0.141315,-0.912574 -0.154103,-0.533656 -0.421618,-1.041205 -0.807089,-1.443968 -0.255995,-0.25832 -0.56695,-0.456181 -0.891118,-0.617684 -0.5289,-0.257897 -1.118786,-0.388219 -1.707129,-0.377438 z m 3.902664,0.01585 c -0.08561,0.02431 -0.122289,0.118696 -0.169112,0.186236 -0.175032,0.313809 -0.344462,0.632587 -0.477638,0.966795 -0.0148,0.05391 -0.05708,0.119542 -0.0222,0.172284 0.05179,0.03594 0.124404,0.0096 0.184121,0.01057 0.383358,-0.04122 0.764918,-0.101467 1.142578,-0.178413 0.05919,-0.02114 0.143323,-0.01585 0.179048,-0.0761 0.02748,-0.05919 -0.03594,-0.101468 -0.08456,-0.116159 -0.11542,-0.0613 -0.226083,-0.131168 -0.33738,-0.199553 0.221221,-0.10633 0.451425,-0.219847 0.702663,-0.219952 0.08984,-0.002 0.207057,0.01691 0.234538,0.117956 0.04651,0.162031 -0.0148,0.329875 -0.06659,0.483133 -0.164145,0.420985 -0.409992,0.79874 -0.670214,1.166095 -0.515583,0.714501 -1.114611,1.368333 -1.766804,1.957953 -0.721689,0.651929 -1.537794,1.194834 -2.404665,1.633797 -0.577731,0.292354 -1.175016,0.557649 -1.786707,0.767137 -0.501102,0.167316 -1.017529,0.306305 -1.548046,0.338542 -0.179682,0.0087 -0.365812,0.0038 -0.5456,-0.01903 -0.04439,-0.0041 -0.09618,-0.02642 -0.09301,-0.07927 0.0075,-0.111932 0.08667,-0.203358 0.152519,-0.288971 0.117744,-0.14586 0.268149,-0.261491 0.433245,-0.349112 0.03911,-0.02431 0.103582,-0.04334 0.04439,-0.08667 -0.102524,-0.134234 -0.204732,-0.268255 -0.306833,-0.402594 -0.166682,0.163828 -0.344356,0.320151 -0.47267,0.517802 -0.04862,0.06976 -0.09407,0.1429 -0.133176,0.218895 0.07821,-0.2264 0.201138,-0.441701 0.372576,-0.610391 0.06659,-0.05602 0.136453,-0.108232 0.204309,-0.162771 -0.07822,-0.164779 -0.157063,-0.329347 -0.235595,-0.49402 -0.25314,0.295418 -0.52964,0.588089 -0.668946,0.95834 -0.03805,0.08773 -0.03488,0.184967 -0.05919,0.276076 0.0092,-0.216041 0.07821,-0.426375 0.164884,-0.622968 0.09195,-0.179894 0.209066,-0.343722 0.348795,-0.487256 0.06342,-0.0613 0.127257,-0.123241 0.19078,-0.184967 -0.05602,-0.197545 -0.08561,-0.404496 -0.17186,-0.592 -0.01691,-0.04651 -0.07293,-0.111509 -0.122501,-0.06447 -0.130111,0.146282 -0.233059,0.314761 -0.342031,0.476897 -0.205471,0.327339 -0.376909,0.684484 -0.445717,1.067175 -0.03065,0.156535 -0.0099,0.31846 0.04756,0.466434 0.12155,0.348477 0.424473,0.613773 0.771682,0.72581 0.335371,0.114574 0.697589,0.08984 1.044164,0.05391 0.491061,-0.05602 0.971658,-0.180211 1.439667,-0.33664 0.122606,-0.04228 0.261596,-0.04862 0.39139,-0.01903 0.265718,0.05708 0.533233,0.112777 0.805716,0.123875 0.806244,0.04651 1.628501,-0.193106 2.27337,-0.681736 0.637871,-0.475735 1.0914,-1.180966 1.288131,-1.949794 0.03911,-0.164991 0.08878,-0.324485 0.191202,-0.463896 0.183065,-0.252823 0.406822,-0.476475 0.606058,-0.719257 0.429017,-0.513574 0.839221,-1.050084 1.149997,-1.645001 0.133916,-0.268677 0.261174,-0.553526 0.274597,-0.857823 0.01163,-0.18613 -0.06764,-0.385471 -0.23475,-0.480492 -0.223862,-0.130956 -0.50163,-0.102524 -0.740184,-0.03065 -0.191098,0.05496 -0.363804,0.161502 -0.544014,0.2394 -0.04228,-0.148185 -0.04334,-0.307257 -0.101468,-0.450685 -0.0148,-0.03277 -0.04756,-0.06236 -0.08561,-0.05496 z m -4.099596,0.438108 c 0.05073,9.51e-4 0.101468,0.002 0.151884,0.01028 -0.105695,0.08878 -0.24088,0.132965 -0.349217,0.217098 -0.02431,0.02854 -0.02008,0.06976 0.02325,0.07187 0.09724,-0.02114 0.195113,-0.04545 0.295313,-0.05285 0.20378,-0.01902 0.410203,-0.03276 0.615358,-0.0034 0.02008,0.003 0.09301,0.0222 0.04228,0.04016 -0.157909,0.08878 -0.340973,0.138039 -0.478588,0.259905 -0.04545,0.04756 0.01585,0.115525 0.07187,0.0983 0.07716,-0.01902 0.152202,-0.04651 0.232319,-0.05179 0.243945,-0.02854 0.495077,-0.04439 0.743884,-0.02854 -0.0099,0.01797 -0.06447,0.04333 -0.09195,0.06236 -0.15347,0.09407 -0.332729,0.14829 -0.469182,0.268466 -0.04016,0.03699 -0.0023,0.09618 0.04862,0.08667 0.161714,-0.01163 0.297004,-0.116159 0.455547,-0.143217 0.124509,-0.02642 0.257685,-0.05073 0.382829,-0.01691 0.05496,0.0222 0.0092,0.08773 -0.0094,0.120915 -0.12694,0.185707 -0.292565,0.341079 -0.453434,0.496769 -0.157697,0.151355 -0.340339,0.284954 -0.554583,0.341607 -0.08244,0.02325 -0.16647,0.06447 -0.253986,0.05602 -0.04756,-0.03382 -0.03277,-0.106224 -0.03911,-0.157592 0.0062,-0.254832 -0.02854,-0.514948 -0.142689,-0.745681 -0.177357,-0.37839 -0.541266,-0.65436 -0.946925,-0.744835 -0.13529,-0.03488 -0.275759,-0.03699 -0.412952,-0.06025 0.263076,-0.06659 0.544965,-0.09301 0.818928,-0.114045 0.106224,-0.0074 0.210968,-0.01163 0.319623,-0.01163 z m 4.30344,4.077124 c -0.05602,0.0084 -0.0613,0.08244 -0.08033,0.125883 -0.04122,0.148502 -0.08667,0.298484 -0.0983,0.452694 -0.0037,0.144274 0.126095,0.237286 0.206,0.339387 0.194691,0.238661 0.342876,0.518542 0.420457,0.817026 0.01268,0.0539 0.02114,0.108655 0.02114,0.163933 -0.03277,-0.215407 -0.144592,-0.409358 -0.259377,-0.591154 -0.108866,-0.175349 -0.258214,-0.318777 -0.406504,-0.460092 -0.02748,-0.0148 -0.06976,-0.09301 -0.08773,-0.06659 -0.03911,0.123346 -0.09935,0.241302 -0.120916,0.369511 -0.0087,0.126834 0.106541,0.210017 0.179471,0.297321 0.156429,0.174503 0.292987,0.380715 0.333786,0.615253 -0.09407,-0.217838 -0.238238,-0.411155 -0.396675,-0.586292 -0.05708,-0.05179 -0.115314,-0.131274 -0.200293,-0.124404 -0.150721,0.05179 -0.243628,0.192471 -0.352917,0.299541 -0.05179,0.03382 0.04016,0.05285 0.06025,0.07927 0.227668,0.147023 0.437367,0.332729 0.578576,0.566316 0.02854,0.04651 0.05813,0.131697 -0.0047,0.163405 -0.124614,0.03594 -0.24775,0.02748 -0.376698,0.03699 -0.34203,0.0079 -0.683426,-0.03805 -1.015838,-0.116794 -0.171227,-0.03065 -0.342559,-0.08244 -0.517908,-0.07399 -0.07927,0.0087 -0.158965,0.05496 -0.201032,0.122923 -0.02114,0.07399 0.07082,0.103582 0.124932,0.122184 0.349006,0.107598 0.705411,0.192683 1.065156,0.255254 0.432082,0.06448 0.887735,0.05602 1.298615,-0.105695 0.382089,-0.143746 0.67941,-0.516216 0.687126,-0.931176 0.01268,-0.379975 -0.143006,-0.741348 -0.324591,-1.066942 -0.132119,-0.227457 -0.27449,-0.451531 -0.448676,-0.649287 -0.0222,-0.0222 -0.04756,-0.05391 -0.08244,-0.05391 z"/>
    <path id="path836-24-4" style="fill:#bebebe;fill-opacity:1;stroke-width:0.208363" d="M 135.61133 135.94336 C 135.59115 135.94122 135.5708 135.94182 135.54883 135.94531 L 135.55273 135.94727 C 135.29308 136.02316 135.36205 136.35322 135.33008 136.56055 C 135.26216 137.08307 135.11055 137.58761 134.9707 138.09375 C 133.9057 137.58082 132.8059 136.97559 131.58789 137.00195 C 130.91916 136.99904 130.28948 137.30089 129.79492 137.73633 C 129.38466 138.05989 129.41024 138.62978 129.40625 139.10156 C 129.37677 139.92409 129.51736 140.75133 129.86133 141.50195 C 130.48292 142.93328 131.3509 144.24306 132.22656 145.5293 C 133.13897 146.86316 134.1537 148.12046 135.20312 149.34766 C 135.3709 149.55141 135.54391 149.75294 135.71289 149.95508 C 135.73897 149.44454 135.85261 148.9336 135.80469 148.42188 C 135.68484 147.75035 135.15259 147.26693 134.75391 146.75 C 133.454 145.16287 132.30325 143.44537 131.38086 141.61133 C 130.96101 140.75285 130.56996 139.82629 130.62109 138.85156 C 130.62425 138.55593 130.89423 138.35161 131.17188 138.33203 C 131.88573 138.1962 132.58372 138.47551 133.24805 138.69922 C 133.52369 138.80709 133.79126 138.90264 134.04492 139.06641 C 133.56914 139.49664 132.95811 139.76335 132.52148 140.23633 C 132.38965 140.41211 132.60984 140.5445 132.76562 140.56445 C 133.95567 140.85208 135.17394 141.00325 136.38477 141.17383 C 136.92686 141.22977 137.47149 141.33266 138.01758 141.30469 C 138.27723 141.27483 138.41229 140.98951 138.31641 140.75781 C 138.0927 140.05153 137.70373 139.41349 137.37695 138.75195 C 136.91436 137.89307 136.49202 137.00452 135.93555 136.20117 C 135.85165 136.09981 135.75256 135.95834 135.61133 135.94336 z M 149.8125 136.17578 C 149.67353 136.17417 149.53546 136.17519 149.39648 136.17773 L 149.39062 136.17969 C 147.15475 136.21835 144.93612 136.81554 142.97852 137.89453 C 142.27224 138.28602 141.54977 138.67475 140.94336 139.21484 C 140.79955 139.31871 140.71602 139.59464 140.93164 139.66016 C 141.44218 139.65656 141.92071 139.43205 142.41406 139.32422 C 143.35284 139.10451 144.33213 139.16126 145.24414 139.37695 C 145.82738 139.51676 146.43838 139.74389 146.96289 140.03711 C 147.73349 140.46815 148.47112 141.07059 148.78711 141.92188 C 149.21974 142.97729 149.30681 144.13985 149.21094 145.26758 C 149.24533 145.3954 149.0996 145.70774 149.27539 145.69336 C 149.51602 145.67788 149.75858 145.66634 150 145.64844 L 150 143.41992 C 149.94633 142.72553 149.79317 142.04023 149.48242 141.41211 C 148.8121 139.98197 147.4375 138.93766 145.9043 138.5957 C 145.39296 138.46387 144.86227 138.45705 144.34375 138.36914 C 145.33805 138.11746 146.40205 138.017 147.4375 137.9375 C 147.83898 137.90953 148.23582 137.89453 148.64648 137.89453 C 148.83822 137.89813 149.03015 137.9023 149.2207 137.93359 C 148.82123 138.26914 148.30985 138.43592 147.90039 138.75391 C 147.80851 138.86177 147.82451 139.01742 147.98828 139.02539 C 148.3558 138.94549 148.72676 138.85414 149.10547 138.82617 C 149.40268 138.79843 149.70066 138.7753 150 138.76172 L 150 136.18164 C 149.93738 136.18008 149.87514 136.17651 149.8125 136.17578 z M 150 139.77734 C 149.92483 139.8302 149.8509 139.88559 149.78125 139.94727 C 149.62395 140.11186 149.8058 140.34062 150 140.32812 L 150 139.77734 z M 142.63672 146.05859 C 141.31651 146.0396 140.02473 146.59053 138.98242 147.38086 C 138.61089 147.67249 138.25415 147.98085 137.89062 148.28125 C 138.47107 148.8617 139.07576 149.41913 139.65625 150 L 150 150 L 150 149.76953 C 149.9799 149.74164 149.95708 149.71489 149.92773 149.69141 C 149.52026 149.34384 148.93014 149.26996 148.41602 149.35547 C 148.14037 149.38155 147.9362 149.5751 147.71289 149.71094 C 147.32939 149.90267 146.77342 149.90711 146.50977 149.51562 C 145.99284 148.80817 145.72094 147.94718 145.16406 147.26367 C 144.69987 146.6337 143.98686 146.1938 143.20508 146.10352 C 143.01602 146.07655 142.82532 146.06131 142.63672 146.05859 z " transform="scale(0.26458333)"/>
    <path id="path836-24-2" style="fill:#bebebe;fill-opacity:1;stroke-width:0.208363" d="M 135.61133 60.943359 C 135.59115 60.941219 135.5708 60.941821 135.54883 60.945312 L 135.55273 60.947266 C 135.29308 61.023159 135.36205 61.353217 135.33008 61.560547 C 135.26216 62.083067 135.11055 62.587611 134.9707 63.09375 C 133.9057 62.580819 132.8059 61.975587 131.58789 62.001953 C 130.91916 61.999035 130.28948 62.300893 129.79492 62.736328 C 129.38466 63.059893 129.41024 63.629779 129.40625 64.101562 C 129.37677 64.92409 129.51736 65.751331 129.86133 66.501953 C 130.48292 67.933283 131.3509 69.243056 132.22656 70.529297 C 133.13897 71.863156 134.15369 73.120459 135.20312 74.347656 C 135.3709 74.551411 135.54391 74.752941 135.71289 74.955078 C 135.73897 74.444543 135.85261 73.933608 135.80469 73.421875 C 135.68484 72.750351 135.15259 72.266926 134.75391 71.75 C 133.454 70.162871 132.30325 68.445374 131.38086 66.611328 C 130.96101 65.75285 130.56996 64.826291 130.62109 63.851562 C 130.62425 63.555928 130.89423 63.351605 131.17188 63.332031 C 131.88574 63.196195 132.58372 63.475509 133.24805 63.699219 C 133.52369 63.807086 133.79126 63.902639 134.04492 64.066406 C 133.56914 64.496645 132.95811 64.763347 132.52148 65.236328 C 132.38965 65.412114 132.60983 65.544497 132.76562 65.564453 C 133.95567 65.852075 135.17394 66.00325 136.38477 66.173828 C 136.92686 66.229765 137.47149 66.332656 138.01758 66.304688 C 138.27723 66.274829 138.41229 65.989509 138.31641 65.757812 C 138.0927 65.051532 137.70373 64.413491 137.37695 63.751953 C 136.91436 62.893074 136.49202 62.004522 135.93555 61.201172 C 135.85165 61.09981 135.75256 60.958345 135.61133 60.943359 z M 149.8125 61.175781 C 149.67353 61.174174 149.53546 61.175188 149.39648 61.177734 L 149.39062 61.179688 C 147.15474 61.218352 144.93612 61.81554 142.97852 62.894531 C 142.27224 63.286022 141.54977 63.674749 140.94336 64.214844 C 140.79955 64.318705 140.71602 64.594642 140.93164 64.660156 C 141.44218 64.656562 141.92071 64.432049 142.41406 64.324219 C 143.35284 64.104515 144.33213 64.161255 145.24414 64.376953 C 145.82738 64.516758 146.43838 64.743894 146.96289 65.037109 C 147.73349 65.468149 148.47112 66.070586 148.78711 66.921875 C 149.21974 67.977297 149.30681 69.13985 149.21094 70.267578 C 149.24533 70.395402 149.0996 70.70774 149.27539 70.693359 C 149.51602 70.677876 149.75858 70.666342 150 70.648438 L 150 68.419922 C 149.94633 67.725532 149.79317 67.040232 149.48242 66.412109 C 148.8121 64.981974 147.4375 63.937656 145.9043 63.595703 C 145.39296 63.463873 144.86227 63.457052 144.34375 63.369141 C 145.33805 63.117462 146.40205 63.017002 147.4375 62.9375 C 147.83898 62.909531 148.23582 62.894531 148.64648 62.894531 C 148.83822 62.898126 149.03015 62.902299 149.2207 62.933594 C 148.82123 63.26914 148.30985 63.435923 147.90039 63.753906 C 147.80851 63.861774 147.82451 64.017416 147.98828 64.025391 C 148.3558 63.945491 148.72676 63.85414 149.10547 63.826172 C 149.40268 63.798431 149.70066 63.775302 150 63.761719 L 150 61.181641 C 149.93738 61.180076 149.87514 61.176506 149.8125 61.175781 z M 150 64.777344 C 149.92483 64.830199 149.8509 64.885586 149.78125 64.947266 C 149.62395 65.111863 149.8058 65.340616 150 65.328125 L 150 64.777344 z M 142.63672 71.058594 C 141.31651 71.0396 140.02473 71.590529 138.98242 72.380859 C 138.61089 72.672488 138.25415 72.980846 137.89062 73.28125 C 138.76308 74.153712 139.69248 74.973197 140.50781 75.900391 C 141.03473 76.515584 141.51887 77.21467 141.56641 78.050781 C 141.5974 78.541738 141.51002 79.045877 141.23438 79.460938 C 140.85888 80.059354 140.43205 80.6561 139.84961 81.068359 C 139.62189 81.208164 139.39776 80.960017 139.23438 80.824219 C 138.5289 80.10316 138.05467 79.185846 137.68555 78.255859 C 137.50976 77.848793 137.45512 77.390115 137.22461 77.007812 C 137.09679 76.832027 136.85631 76.960871 136.81836 77.140625 C 136.62262 77.663141 136.75483 78.236317 136.85352 78.765625 C 137.17311 80.185371 137.79182 81.538645 138.68945 82.685547 C 139.69174 84.001832 140.88942 85.190793 142.30078 86.064453 C 142.64831 86.280189 143.05533 86.116367 143.39648 85.976562 C 143.70009 85.86072 144.00188 85.744687 144.30469 85.632812 C 143.59002 85.285285 142.83896 84.97573 142.24414 84.431641 C 142.03642 84.239905 141.79687 84.047703 141.69141 83.78125 C 141.89516 83.645414 142.16754 83.737802 142.39844 83.669922 C 143.60366 83.470174 144.72373 82.89573 145.69727 82.171875 C 146.23776 81.767602 146.70812 81.269632 147.04688 80.683594 C 147.14276 80.535776 147.25145 80.397097 147.36328 80.263672 C 147.45516 80.968754 147.44248 81.720082 147.30664 82.435547 C 147.18679 83.041556 146.92741 83.657308 146.69531 84.244141 C 146.64338 84.463845 146.92234 84.515146 147.07812 84.447266 C 147.94659 84.175631 148.75648 83.741944 149.57422 83.347656 C 149.71651 83.275375 149.85795 83.201742 150 83.128906 L 150 74.769531 C 149.9799 74.741643 149.95708 74.714894 149.92773 74.691406 C 149.52026 74.343841 148.93014 74.269964 148.41602 74.355469 C 148.14037 74.381547 147.9362 74.575101 147.71289 74.710938 C 147.32939 74.902673 146.77342 74.907108 146.50977 74.515625 C 145.99284 73.808158 145.72094 72.947181 145.16406 72.263672 C 144.69987 71.633696 143.98686 71.193797 143.20508 71.103516 C 143.01602 71.076553 142.82532 71.061307 142.63672 71.058594 z M 134.8457 78.324219 C 134.79851 78.323442 134.74996 78.342272 134.70312 78.386719 C 134.21137 78.939596 133.82202 79.576656 133.41016 80.189453 C 132.63357 81.42664 131.98662 82.776265 131.72656 84.222656 C 131.61072 84.814285 131.68908 85.427056 131.90625 85.986328 C 132.36565 87.303407 133.50998 88.305069 134.82227 88.728516 C 136.08981 89.161551 137.45964 89.067439 138.76953 88.931641 C 140.62551 88.719911 142.44208 88.251384 144.21094 87.660156 C 144.67433 87.500358 145.19889 87.476054 145.68945 87.587891 C 146.69374 87.803626 147.70452 88.014695 148.73438 88.056641 C 149.15557 88.080938 149.57842 88.083061 150 88.066406 L 150 83.904297 C 148.03527 84.87093 146.0128 85.747687 143.94727 86.455078 C 142.05334 87.087454 140.10276 87.612534 138.09766 87.734375 C 137.41854 87.767257 136.71467 87.748396 136.03516 87.662109 C 135.86738 87.646613 135.67161 87.563029 135.68359 87.363281 C 135.71194 86.940231 136.01089 86.595061 136.25977 86.271484 C 136.70478 85.720202 137.2725 85.282338 137.89648 84.951172 C 138.0443 84.859292 138.28817 84.788767 138.06445 84.625 C 137.67696 84.117659 137.29214 83.611254 136.90625 83.103516 C 136.27627 83.722708 135.60411 84.313519 135.11914 85.060547 C 134.93538 85.324207 134.76304 85.599494 134.61523 85.886719 C 134.91083 85.031034 135.37548 84.217647 136.02344 83.580078 C 136.27512 83.368349 136.54041 83.170975 136.79688 82.964844 C 136.50124 82.342057 136.20306 81.720042 135.90625 81.097656 C 134.9495 82.214197 133.90346 83.319376 133.37695 84.71875 C 133.23314 85.050328 133.24618 85.419323 133.1543 85.763672 C 133.18907 84.947139 133.44976 84.151232 133.77734 83.408203 C 134.12487 82.728289 134.56759 82.108897 135.0957 81.566406 C 135.3354 81.334721 135.57632 81.100483 135.81641 80.867188 C 135.60468 80.120561 135.492 79.339536 135.16602 78.630859 C 135.11808 78.49902 134.98729 78.326549 134.8457 78.324219 z " transform="scale(0.26458333)"/>
    <path id="path836-24-48" style="fill:#bebebe;fill-opacity:1;stroke-width:0.0551293" d="m 25.943258,6.2038656 c -0.0687,0.02008 -0.05073,0.107069 -0.05919,0.161925 -0.01797,0.13825 -0.05813,0.27206 -0.09513,0.405976 -0.281783,-0.135713 -0.572657,-0.295947 -0.894922,-0.288971 -0.176934,-7.72e-4 -0.343722,0.07927 -0.474573,0.194479 -0.108549,0.08561 -0.101467,0.23623 -0.102524,0.361056 -0.0078,0.217627 0.02959,0.436733 0.120598,0.635335 0.164462,0.378706 0.393821,0.724859 0.625506,1.0651774 0.241408,0.352917 0.510085,0.685751 0.787747,1.010447 0.04439,0.05391 0.08984,0.106964 0.13455,0.160446 0.0069,-0.135079 0.03699,-0.270263 0.02431,-0.405659 C 25.97792,9.326403 25.83703,9.198935 25.731546,9.062165 25.387613,8.642237 25.083527,8.1877466 24.839477,7.7024886 c -0.111086,-0.227139 -0.214562,-0.472458 -0.201033,-0.730355 8.35e-4,-0.07822 0.07187,-0.132331 0.145331,-0.13751 0.188878,-0.03594 0.373845,0.03805 0.549616,0.09724 0.07293,0.02854 0.143535,0.05391 0.210651,0.09724 -0.125883,0.113834 -0.287491,0.184438 -0.403016,0.309581 -0.03488,0.04651 0.02325,0.08139 0.06447,0.08667 0.314866,0.0761 0.637237,0.116053 0.9576,0.161185 0.143429,0.0148 0.287597,0.04228 0.432083,0.03488 0.0687,-0.0079 0.104638,-0.0835 0.07927,-0.144803 -0.05919,-0.18687 -0.162348,-0.355982 -0.248807,-0.531014 -0.122395,-0.227245 -0.233903,-0.462206 -0.381137,-0.674759 -0.02537,-0.03065 -0.05602,-0.07504 -0.102525,-0.06765 z m 3.661362,0.0613 c -0.591577,0.01023 -1.17861,0.168373 -1.696559,0.453856 -0.18687,0.103582 -0.378284,0.206423 -0.53873,0.349323 -0.03805,0.02748 -0.06025,0.100411 -0.0032,0.117745 0.135079,-9.51e-4 0.262019,-0.06025 0.392553,-0.08878 0.248384,-0.05813 0.507549,-0.04333 0.748852,0.01374 0.154315,0.03699 0.315923,0.09724 0.454701,0.17482 0.203887,0.114046 0.399106,0.273223 0.482711,0.49846 0.114468,0.279247 0.137404,0.586821 0.112037,0.8851994 0.0091,0.03382 -0.0296,0.116476 0.01691,0.112671 0.18074,-0.01163 0.364967,-0.01374 0.537673,-0.07504 0.166576,-0.04756 0.322899,-0.12768 0.455336,-0.2397174 0.234855,-0.190674 0.455335,-0.402911 0.637131,-0.645376 0.04756,-0.05813 0.07399,-0.128103 0.104639,-0.195642 0.01585,-0.05073 0.0539,-0.01268 0.07716,0.0101 0.180951,0.176723 0.325753,0.387797 0.453645,0.605001 0.209911,0.3633804 0.236335,0.8040254 0.156746,1.2109094 -0.03277,0.159495 -0.08456,0.318778 -0.15738,0.45597 -0.1466,0.268995 -0.353023,0.512939 -0.616839,0.67275 -0.08138,0.04756 -0.179153,0.08033 -0.275125,0.09196 0.0687,-0.07927 0.15273,-0.146176 0.208643,-0.236863 0.0983,-0.136452 0.163194,-0.292247 0.242148,-0.439692 -0.211919,0.0054 -0.425741,-0.01374 -0.63618,0.01691 -0.08033,0.0098 -0.158121,0.04439 -0.207375,0.110134 -0.02431,0.02114 -0.05496,0.04439 -0.08773,0.04016 0.0052,-0.05813 0.07293,-0.120387 0.02325,-0.177677 -0.06976,-0.0613 -0.173023,-0.0539 -0.259588,-0.07187 -0.117639,-0.01163 -0.247221,-0.03699 -0.357673,0.01797 -0.02748,0.01797 -0.04756,0.04756 -0.07927,0.06025 -0.0017,-0.05391 2.32e-4,-0.114996 -0.04651,-0.152413 -0.10781,-0.09196 -0.263816,-0.111403 -0.399846,-0.08878 -0.07293,0.0069 -0.127363,0.05813 -0.186447,0.09407 -0.101467,0.05073 -0.248172,0.05179 -0.317931,-0.05179 C 28.705602,9.60634 28.633518,9.378989 28.486178,9.198144 28.36336,9.031463 28.174483,8.914669 27.967637,8.890782 c -0.400163,-0.05707 -0.802017,0.09935 -1.11719,0.338331 -0.0983,0.07716 -0.192365,0.158755 -0.288548,0.238237 0.230838,0.230839 0.47658,0.447515 0.692304,0.692835 0.139413,0.16277 0.26741,0.347419 0.279988,0.56864 0.0082,0.129899 -0.0148,0.263604 -0.08773,0.373422 -0.09935,0.158331 -0.212447,0.316029 -0.366551,0.425106 -0.06025,0.03699 -0.119436,-0.02854 -0.162665,-0.06447 -0.186658,-0.19078 -0.312013,-0.433351 -0.409676,-0.67941 -0.04651,-0.107703 -0.0613,-0.229147 -0.122289,-0.330298 -0.03382,-0.04651 -0.09724,-0.01268 -0.107281,0.03488 -0.05179,0.138249 -0.01691,0.290134 0.0092,0.43018 0.08456,0.375641 0.248384,0.733526 0.485882,1.036977 0.265189,0.348267 0.582064,0.662922 0.955486,0.894078 0.09195,0.05708 0.199658,0.01374 0.289922,-0.02325 0.08033,-0.03065 0.160129,-0.0613 0.240246,-0.0909 -0.189089,-0.09195 -0.387691,-0.173975 -0.545071,-0.317932 -0.05496,-0.05073 -0.118379,-0.101468 -0.146283,-0.171967 0.05391,-0.03594 0.125989,-0.01163 0.187081,-0.02959 0.318883,-0.05285 0.614936,-0.204521 0.872516,-0.396041 0.143005,-0.106964 0.267832,-0.238766 0.357461,-0.393822 0.02537,-0.03911 0.05391,-0.0761 0.0835,-0.111402 0.02431,0.186553 0.02114,0.385683 -0.0148,0.574983 -0.03171,0.16034 -0.10041,0.3229 -0.161819,0.478166 -0.01374,0.05813 0.06025,0.07187 0.101467,0.05391 0.229782,-0.07187 0.443709,-0.186553 0.660068,-0.290875 0.54412,-0.276393 1.082247,-0.567055 1.592607,-0.902533 0.532916,-0.362429 1.039831,-0.764495 1.508041,-1.207589 C 32.890167,9.889385 33.019749,9.751347 33.152397,9.616374 33.120687,9.310069 33.100607,9.00017 33.011082,8.7038 32.856979,8.1701441 32.589464,7.6625951 32.203993,7.2598321 c -0.255995,-0.25832 -0.56695,-0.456181 -0.891118,-0.617684 -0.5289,-0.257897 -1.118786,-0.388219 -1.707129,-0.377438 z m 3.902664,0.01585 c -0.08561,0.02431 -0.122289,0.118696 -0.169112,0.186236 -0.175032,0.313809 -0.344462,0.632587 -0.477638,0.966795 -0.0148,0.05391 -0.05708,0.119542 -0.0222,0.172284 0.05179,0.03594 0.124404,0.0096 0.184121,0.01057 0.383358,-0.04122 0.764918,-0.101467 1.142578,-0.178413 0.05919,-0.02114 0.143323,-0.01585 0.179048,-0.0761 0.02748,-0.05919 -0.03594,-0.101468 -0.08456,-0.116159 -0.11542,-0.0613 -0.226083,-0.131168 -0.33738,-0.199553 0.221221,-0.10633 0.451425,-0.219847 0.702663,-0.219952 0.08984,-0.002 0.207057,0.01691 0.234538,0.117956 0.04651,0.162031 -0.0148,0.329875 -0.06659,0.483133 -0.164145,0.420985 -0.409992,0.79874 -0.670214,1.1660954 -0.515583,0.714501 -1.114611,1.368333 -1.766804,1.957953 -0.721689,0.651929 -1.537794,1.194834 -2.404665,1.633797 -0.577731,0.292354 -1.175016,0.557649 -1.786707,0.767137 -0.501102,0.167316 -1.017529,0.306305 -1.548046,0.338542 -0.179682,0.0087 -0.365812,0.0038 -0.5456,-0.01903 -0.04439,-0.0041 -0.09618,-0.02642 -0.09301,-0.07927 0.0075,-0.111932 0.08667,-0.203358 0.152519,-0.288971 0.117744,-0.14586 0.268149,-0.261491 0.433245,-0.349112 0.03911,-0.02431 0.103582,-0.04334 0.04439,-0.08667 -0.102524,-0.134234 -0.204732,-0.268255 -0.306833,-0.402594 -0.166682,0.163828 -0.344356,0.320151 -0.47267,0.517802 -0.04862,0.06976 -0.09407,0.1429 -0.133176,0.218895 0.07821,-0.2264 0.201138,-0.441701 0.372576,-0.610391 0.06659,-0.05602 0.136453,-0.108232 0.204309,-0.162771 -0.07822,-0.164779 -0.157063,-0.329347 -0.235595,-0.49402 -0.25314,0.295418 -0.52964,0.588089 -0.668946,0.95834 -0.03805,0.08773 -0.03488,0.184967 -0.05919,0.276076 0.0092,-0.216041 0.07821,-0.426375 0.164884,-0.622968 0.09195,-0.179894 0.209066,-0.343722 0.348795,-0.487256 0.06342,-0.0613 0.127257,-0.123241 0.19078,-0.184967 -0.05602,-0.197545 -0.08561,-0.404496 -0.17186,-0.592 -0.01691,-0.04651 -0.07293,-0.111509 -0.122501,-0.06447 -0.130111,0.146282 -0.233059,0.314761 -0.342031,0.476897 -0.205471,0.327339 -0.376909,0.684484 -0.445717,1.067175 -0.03065,0.156535 -0.0099,0.31846 0.04756,0.466434 0.12155,0.348477 0.424473,0.613773 0.771682,0.72581 0.335371,0.114574 0.697589,0.08984 1.044164,0.05391 0.491061,-0.05602 0.971658,-0.180211 1.439667,-0.33664 0.122606,-0.04228 0.261596,-0.04862 0.39139,-0.01903 0.265718,0.05708 0.533233,0.112777 0.805716,0.123875 0.806244,0.04651 1.628501,-0.193106 2.27337,-0.681736 0.637871,-0.475735 1.0914,-1.180966 1.288131,-1.949794 0.03911,-0.164991 0.08878,-0.324485 0.191202,-0.463896 0.183065,-0.252823 0.406822,-0.476475 0.606058,-0.719257 0.429017,-0.513574 0.839221,-1.0500844 1.149997,-1.6450014 0.133916,-0.268677 0.261174,-0.553526 0.274597,-0.857823 0.01163,-0.18613 -0.06764,-0.385471 -0.23475,-0.480492 -0.223862,-0.130956 -0.50163,-0.102524 -0.740184,-0.03065 -0.191098,0.05496 -0.363804,0.161502 -0.544014,0.2394 -0.04228,-0.148185 -0.04334,-0.307257 -0.101468,-0.450685 -0.0148,-0.03277 -0.04756,-0.06236 -0.08561,-0.05496 z m -4.099596,0.438108 c 0.05073,9.51e-4 0.101468,0.002 0.151884,0.01028 -0.105695,0.08878 -0.24088,0.132965 -0.349217,0.217098 -0.02431,0.02854 -0.02008,0.06976 0.02325,0.07187 0.09724,-0.02114 0.195113,-0.04545 0.295313,-0.05285 0.20378,-0.01902 0.410203,-0.03276 0.615358,-0.0034 0.02008,0.003 0.09301,0.0222 0.04228,0.04016 -0.157909,0.08878 -0.340973,0.138039 -0.478588,0.259905 -0.04545,0.04756 0.01585,0.115525 0.07187,0.0983 0.07716,-0.01902 0.152202,-0.04651 0.232319,-0.05179 0.243945,-0.02854 0.495077,-0.04439 0.743884,-0.02854 -0.0099,0.01797 -0.06447,0.04333 -0.09195,0.06236 -0.15347,0.09407 -0.332729,0.14829 -0.469182,0.268466 -0.04016,0.03699 -0.0023,0.09618 0.04862,0.08667 0.161714,-0.01163 0.297004,-0.116159 0.455547,-0.143217 0.124509,-0.02642 0.257685,-0.05073 0.382829,-0.01691 0.05496,0.0222 0.0092,0.08773 -0.0094,0.120915 -0.12694,0.185707 -0.292565,0.341079 -0.453434,0.496769 -0.157697,0.151355 -0.340339,0.284954 -0.554583,0.341607 -0.08244,0.02325 -0.16647,0.06447 -0.253986,0.05602 -0.04756,-0.03382 -0.03277,-0.1062244 -0.03911,-0.1575924 0.0062,-0.254832 -0.02854,-0.514948 -0.142689,-0.745681 -0.177357,-0.37839 -0.541266,-0.65436 -0.946925,-0.744835 -0.13529,-0.03488 -0.275759,-0.03699 -0.412952,-0.06025 0.263076,-0.06659 0.544965,-0.09301 0.818928,-0.114045 0.106224,-0.0074 0.210968,-0.01163 0.319623,-0.01163 z m 4.30344,4.0771244 c -0.05602,0.0084 -0.0613,0.08244 -0.08033,0.125883 -0.04122,0.148502 -0.08667,0.298484 -0.0983,0.452694 -0.0037,0.144274 0.126095,0.237286 0.206,0.339387 0.194691,0.238661 0.342876,0.518542 0.420457,0.817026 0.01268,0.0539 0.02114,0.108655 0.02114,0.163933 -0.03277,-0.215407 -0.144592,-0.409358 -0.259377,-0.591154 -0.108866,-0.175349 -0.258214,-0.318777 -0.406504,-0.460092 -0.02748,-0.0148 -0.06976,-0.09301 -0.08773,-0.06659 -0.03911,0.123346 -0.09935,0.241302 -0.120916,0.369511 -0.0087,0.126834 0.106541,0.210017 0.179471,0.297321 0.156429,0.174503 0.292987,0.380715 0.333786,0.615253 -0.09407,-0.217838 -0.238238,-0.411155 -0.396675,-0.586292 -0.05708,-0.05179 -0.115314,-0.131274 -0.200293,-0.124404 -0.150721,0.05179 -0.243628,0.192471 -0.352917,0.299541 -0.05179,0.03382 0.04016,0.05285 0.06025,0.07927 0.227668,0.147023 0.437367,0.332729 0.578576,0.566316 0.02854,0.04651 0.05813,0.131697 -0.0047,0.163405 -0.124614,0.03594 -0.24775,0.02748 -0.376698,0.03699 -0.34203,0.0079 -0.683426,-0.03805 -1.015838,-0.116794 -0.171227,-0.03065 -0.342559,-0.08244 -0.517908,-0.07399 -0.07927,0.0087 -0.158965,0.05496 -0.201032,0.122923 -0.02114,0.07399 0.07082,0.103582 0.124932,0.122184 0.349006,0.107598 0.705411,0.192683 1.065156,0.255254 0.432082,0.06448 0.887735,0.05602 1.298615,-0.105695 0.382089,-0.143746 0.67941,-0.516216 0.687126,-0.931176 0.01268,-0.379975 -0.143006,-0.741348 -0.324591,-1.066942 -0.132119,-0.227457 -0.27449,-0.451531 -0.448676,-0.649287 -0.0222,-0.0222 -0.04756,-0.05391 -0.08244,-0.05391 z"/>
  </g>
</svg>